<?xml version="1.0" encoding="UTF-8" standalone="no"?>
<!-- Created with Inkscape (http://www.inkscape.org/) -->

<svg
   version="1.1"
   id="svg3779"
   width="225.64986"
   height="292.40253"
   viewBox="0 0 225.64986 292.40252"
   sodipodi:docname="Raspberry1b.svg"
   inkscape:version="1.2.2 (732a01da63, 2022-12-09, custom)"
   xmlns:inkscape="http://www.inkscape.org/namespaces/inkscape"
   xmlns:sodipodi="http://sodipodi.sourceforge.net/DTD/sodipodi-0.dtd"
   xmlns="http://www.w3.org/2000/svg"
   xmlns:svg="http://www.w3.org/2000/svg"
   xmlns:rdf="http://www.w3.org/1999/02/22-rdf-syntax-ns#"
   xmlns:cc="http://creativecommons.org/ns#"
   xmlns:dc="http://purl.org/dc/elements/1.1/">
  <defs
     id="defs3783" />
  <sodipodi:namedview
     id="namedview3781"
     pagecolor="#ffffff"
     bordercolor="#000000"
     borderopacity="0.25"
     inkscape:showpageshadow="2"
     inkscape:pageopacity="0.0"
     inkscape:pagecheckerboard="0"
     inkscape:deskcolor="#d1d1d1"
     showgrid="false"
     inkscape:zoom="0.97968464"
     inkscape:cx="180.67038"
     inkscape:cy="236.8109"
     inkscape:window-width="1920"
     inkscape:window-height="1031"
     inkscape:window-x="0"
     inkscape:window-y="25"
     inkscape:window-maximized="1"
     inkscape:current-layer="layer12" />
  <g
     inkscape:groupmode="layer"
     id="layer12"
     inkscape:label="Layer 1">
    <path
       style="fill:#000000;stroke-width:0.32"
       d="m 46.08,125.12743 c -3.038038,-0.73446 -6.687267,-2.73124 -7.968672,-4.36028 C 37.779437,120.34522 37.324614,120 37.100611,120 c -0.224003,0 -0.313897,-0.0934 -0.199763,-0.20751 0.114131,-0.11413 -0.05211,-0.43813 -0.369414,-0.72 -0.317309,-0.28187 -0.832532,-0.94449 -1.144941,-1.47249 -0.478435,-0.8086 -1.087757,-1.12804 -3.863618,-2.02552 -1.812581,-0.58603 -3.562738,-1.26961 -3.889238,-1.51906 -0.3265,-0.24945 -1.114293,-0.85486 -1.75065,-1.34535 -1.388976,-1.0706 -4.83074,-4.99551 -4.991735,-5.69246 -0.03781,-0.16368 -0.446452,-1.21474 -0.908091,-2.33567 -0.46164,-1.12093 -0.904186,-2.39564 -0.983438,-2.83268 C 18.248246,97.705114 17.899402,96.879248 16.288698,95.431085 14.428551,93.758656 11.84,90.495776 11.84,89.823488 11.84,89.56767 11.638128,89.190826 11.391396,88.986058 11.144664,88.781286 10.853921,88.259654 10.7453,87.826874 10.636678,87.394093 10.398052,87.04 10.215018,87.04 c -0.183034,0 -0.2483492,-0.136627 -0.145145,-0.303613 0.103204,-0.166989 0.03805,-1.240016 -0.1447802,-2.384509 -0.445553,-2.789049 0.1433082,-7.972777 1.1100072,-9.771356 1.809044,-3.365802 1.886297,-3.68849 1.280541,-5.348813 C 12.004269,68.378269 11.413589,66.744 11.003017,65.6 10.592445,64.456 10.241106,63.52 10.222264,63.52 10.104204,63.52 9.915465,61.241747 9.8643779,59.2 9.7549331,54.82591 11.4177,50.720256 14.696597,47.268429 c 1.762304,-1.855248 2.320624,-2.686471 2.640136,-3.930618 0.775417,-3.019395 3.121716,-7.201197 5.145215,-9.170301 1.035711,-1.007868 1.980973,-1.806294 2.100582,-1.774275 0.119608,0.03202 0.86547,-0.229683 1.65747,-0.581553 1.449828,-0.644133 3.296459,-1.236565 4.828006,-1.548911 1.025418,-0.209126 2.601056,-1.412139 2.360125,-1.801976 -0.158345,-0.256209 -1.777521,-1.571588 -8.226937,-6.683366 -1.426425,-1.130578 -1.839073,-1.651987 -1.84,-2.324963 -0.0027,-1.98329 2.608768,-2.985494 7.678806,-2.946867 2.321354,0.01769 3.953514,0.210476 5.28,0.623672 1.056,0.32894 1.992,0.617857 2.08,0.642038 0.088,0.02418 0.418211,0.157318 0.733802,0.295861 0.87904,0.385893 1.03478,-0.03794 0.55752,-1.517254 C 39.451792,15.807462 39.199248,13.364 39.130115,11.12 L 39.004419,7.04 h 0.768627 c 0.958093,0 2.786954,0.8881021 2.786954,1.3533552 0,0.1905642 0.568432,0.9036848 1.263184,1.5847123 0.694752,0.6810275 1.547274,1.5993895 1.89449,2.0408045 0.746435,0.948938 0.975536,0.69931 1.274156,-1.38831 0.179476,-1.2546708 0.356372,-1.5472702 1.091815,-1.8059114 1.076915,-0.37873 2.120297,0.3019334 3.686729,2.4050804 0.966404,1.297529 1.732663,2.189027 2.587386,3.010269 0.784509,0.753779 2.60224,2.976238 2.60224,3.181641 0,0.123241 0.214957,0.43903 0.477683,0.701755 0.423575,0.423576 0.567411,0.37568 1.269888,-0.422857 0.435712,-0.495296 0.796755,-1.147472 0.802317,-1.44928 C 59.51545,15.949451 59.808,15.548385 60.16,15.36 c 0.447677,-0.23959 0.64,-0.670023 0.64,-1.432373 0,-0.599421 0.144,-1.178853 0.32,-1.287627 0.176,-0.108774 0.32,-0.559558 0.32,-1.001743 0,-1.004115 0.729162,-1.7518311 2.212416,-2.2687133 1.594237,-0.5555568 1.867907,-0.518312 2.762128,0.3759107 C 67.168205,10.499115 67.2,10.699888 67.2,14.705454 c 0,2.654384 0.120186,4.174546 0.330042,4.174546 0.181526,0 0.407945,-0.203004 0.503155,-0.451121 0.09521,-0.248116 0.488057,-0.530167 0.872989,-0.626779 C 69.29112,17.70549 70.1628,17.116492 70.843254,16.493221 71.523709,15.869949 72.140173,15.36 72.213178,15.36 c 0.162192,0 2.124054,-1.364555 2.346822,-1.632311 0.171354,-0.205955 1.479728,-0.55035 3.04,-0.800197 1.596672,-0.255676 3.36,-0.853272 3.36,-1.138711 0,-0.14783 1.774899,-0.268781 3.944221,-0.268781 3.709094,0 3.985696,0.04415 4.64,0.740624 1.065107,1.133757 0.887222,2.192639 -0.621869,3.701729 C 88.197648,16.687059 87.457946,17.28 87.278573,17.28 c -0.179373,0 -2.544787,2.260859 -5.256474,5.024131 l -4.930342,5.024131 1.374121,0.411011 c 0.755767,0.226056 1.830122,0.413197 2.387456,0.415869 0.557332,0.0027 1.061332,0.113559 1.12,0.246416 0.05867,0.132857 1.258666,0.802634 2.666666,1.488394 2.004518,0.976292 3.086448,1.790344 4.986202,3.751661 1.334412,1.377651 2.774412,3.191875 3.2,4.031603 0.42559,0.839731 0.881798,1.574784 1.013798,1.63345 0.132,0.05867 0.24,0.389817 0.24,0.735891 0,0.868832 0.739267,2.208038 1.729597,3.133222 0.45672,0.426682 0.830403,0.904736 0.830403,1.062346 0,0.157609 0.432,0.914454 0.96,1.681875 0.528,0.767421 0.96,1.612867 0.96,1.878771 0,0.265901 0.126525,0.561655 0.281168,0.657229 0.154643,0.09557 0.359757,1.004074 0.455805,2.018886 0.09605,1.014813 0.269283,2.637114 0.384957,3.605114 0.201555,1.686627 -0.156695,4.211869 -0.873325,6.155949 -0.256685,0.696339 -0.184048,1.171331 0.354249,2.316512 0.372432,0.79231 0.677146,1.629334 0.677146,1.860051 0,0.23072 0.11896,0.556288 0.26436,0.723488 0.71803,0.825702 1.05553,3.042304 0.92331,6.064 -0.18656,4.263434 -0.2729,4.611926 -2.110819,8.519267 C 98.016835,81.632672 97.92,82.137798 97.92,84.919267 97.92,86.759757 97.791174,88 97.6,88 c -0.176,0 -0.32,0.34639 -0.32,0.76976 0,0.699424 -0.445203,1.778499 -1.860826,4.51024 -0.543929,1.049622 -2.677676,3.696989 -3.819174,4.738486 -0.601414,0.54873 -0.72,0.990007 -0.72,2.679224 0,1.13486 -0.140422,2.02229 -0.32,2.02229 -0.176,0 -0.32,0.36907 -0.32,0.82016 0,2.52116 -3.581661,7.25811 -6.644534,8.78779 -0.81474,0.40689 -1.658196,1.13369 -1.954391,1.68406 -0.286592,0.53252 -0.773075,1.23367 -1.081075,1.55811 -0.308,0.32443 -0.56,0.74668 -0.56,0.93832 0,0.68589 -4.664413,4.83697 -6.24,5.55328 -4.370342,1.9869 -8.312934,2.5253 -12.730819,1.73852 -1.653453,-0.29447 -2.259757,-0.29766 -2.544,-0.0134 -0.205248,0.20525 -0.637447,0.37318 -0.960439,0.37318 -0.322992,0 -0.920224,0.21817 -1.327177,0.48481 -0.868611,0.56914 -8.294477,0.92336 -10.117565,0.48262 z"
       id="path3789"
       transform="matrix(2.4720077,0,0,2.4720077,-24.160952,-17.402934)" />
    <g
       id="layer11"
       inkscape:label="01"
       transform="matrix(2.4720077,0,0,2.4720077,-24.160952,-17.402934)"
       style="fill:#d40000">
      <path
         style="fill:#d40000;stroke-width:0.32"
         d="m 86.457565,40.279946 c 1.112339,-0.382084 2.120269,-0.845428 2.239843,-1.029652 0.511894,-0.788662 -3.088979,-4.56608 -5.540896,-5.812556 -2.1208,-1.078151 -3.887971,-1.408423 -3.606131,-0.673959 0.104678,0.272794 0.356669,0.464538 0.559974,0.426103 C 80.313661,33.151446 80.444,33.3 80.4,33.52 c -0.044,0.22 0.03336,0.4 0.171904,0.4 0.138544,0 0.274323,0.297658 0.301728,0.661459 0.02739,0.363802 0.28992,1.335802 0.583366,2.16 0.559863,1.572477 0.74184,2.149639 0.80146,2.541901 0.01978,0.13015 0.18383,0.414806 0.364553,0.632566 0.180723,0.217757 0.240013,0.626752 0.131751,0.908877 -0.329373,0.85833 0.124108,1.169543 0.932435,0.639907 0.411363,-0.269536 1.658029,-0.802678 2.770368,-1.184764 z"
         id="path3866" />
      <path
         style="fill:#d40000;stroke-width:0.32"
         d="m 80.20417,43.466429 c 0.255814,-0.200426 0.274137,-0.639555 0.06158,-1.475875 C 80.099322,41.33575 79.901949,40.368 79.827142,39.84 79.582234,38.111443 79.345811,37.410998 79.065706,37.584112 78.914163,37.67777 78.697002,37.257744 78.583123,36.650717 78.351987,35.41865 78.000138,34.693443 76.690256,32.749258 75.788237,31.410444 74.761309,30.891753 71.68,30.218632 c -1.687411,-0.36862 -6.152733,-0.218718 -6.42113,0.215559 -0.126128,0.204076 0.03395,1.251868 0.355728,2.328427 0.321776,1.07656 0.75537,2.533382 0.963546,3.237382 0.208173,0.704 0.454662,1.496 0.547757,1.76 0.09309,0.264 0.139529,0.788826 0.103197,1.166278 -0.05602,0.581975 0.265036,0.794036 2.112419,1.395261 1.198166,0.389939 2.343955,0.735424 2.546201,0.767747 0.202244,0.03232 0.562244,0.2105 0.8,0.395956 0.237754,0.185452 1.296282,0.677836 2.352282,1.094182 1.056,0.416346 2.198474,0.938397 2.538826,1.160115 0.619564,0.403607 1.936476,0.266611 2.625344,-0.27311 z"
         id="path3864" />
      <path
         style="fill:#d40000;stroke-width:0.32"
         d="m 61.28,43.904717 c 3.765232,-3.288122 3.71783,-3.210378 3.299648,-5.411805 -0.549408,-2.892246 -2.204803,-7.981456 -2.612122,-8.030486 -0.202137,-0.02433 -0.958281,-0.0987 -1.680316,-0.165271 -0.722036,-0.06657 -1.465735,-0.215555 -1.652669,-0.331086 -0.186931,-0.115531 -0.394496,-0.0462 -0.461251,0.154062 -0.07305,0.219156 -1.120461,0.402912 -2.6309,0.461561 -1.380236,0.05359 -2.66272,0.250637 -2.849958,0.437875 C 52.505194,31.206805 52.010515,31.36 51.593142,31.36 50.319152,31.36 49.92,32.076054 49.92,34.36153 c 0,1.147984 -0.205898,2.877737 -0.457549,3.843894 -0.251651,0.966157 -0.551712,2.384573 -0.6668,3.152035 -0.193222,1.288493 -0.144758,1.424775 0.632605,1.778967 0.463021,0.210966 1.123082,0.383574 1.4668,0.383574 0.343718,0 0.624944,0.12095 0.624944,0.268781 0,0.14783 0.612,0.449865 1.36,0.671187 0.748,0.221325 1.610045,0.532374 1.915658,0.691219 0.305612,0.158848 0.773612,0.288813 1.04,0.288813 0.266387,0 0.484342,0.121994 0.484342,0.271101 0,0.449677 1.405786,0.946966 1.92,0.67919 0.264,-0.137478 1.632,-1.255987 3.04,-2.485574 z"
         id="path3862" />
      <path
         style="fill:#d40000;stroke-width:0.32"
         d="M 24.005717,46.933459 C 24.618572,46.522864 25.876,45.849194 26.8,45.436419 c 0.924,-0.412777 1.68,-0.877334 1.68,-1.032345 0,-0.155015 0.108,-0.218253 0.24,-0.140532 0.411431,0.242253 1.731926,-0.40064 1.521673,-0.740835 C 30.131979,43.345219 30.178478,43.2 30.345004,43.2 c 0.166526,0 0.391024,-1.008 0.498885,-2.24 0.107861,-1.232 0.283584,-3.234259 0.390496,-4.449462 l 0.194386,-2.209463 -1.234386,0.16593 c -2.985843,0.401366 -6.094866,2.95016 -7.601787,6.23199 -1.509769,3.288029 -1.731401,3.888138 -1.580853,4.280458 0.08354,0.217696 -0.0019,0.490873 -0.189929,0.607065 -0.587629,0.363175 -0.376491,0.963748 0.538184,1.530848 1.148902,0.712324 1.326425,0.699984 2.645717,-0.183907 z"
         id="path3860" />
      <path
         style="fill:#d40000;stroke-width:0.32"
         d="m 42.176362,46.815718 c 0.739001,-0.689107 1.347603,-1.388553 1.352448,-1.55432 C 43.53361,45.095629 44.033629,44.6 44.639859,44.16 c 0.809552,-0.587565 1.220752,-1.224867 1.548531,-2.4 0.747447,-2.679693 1.15808,-5.007664 1.307709,-7.41368 0.120186,-1.932509 0.05772,-2.330192 -0.396726,-2.525563 -1.635488,-0.703123 -7.845728,-1.337202 -8.474243,-0.86524 -0.211821,0.159061 -1.03313,0.484354 -1.82513,0.722872 -2.142029,0.645096 -2.796701,1.372171 -2.981443,3.311179 -0.08649,0.907738 -0.328391,2.991453 -0.537562,4.630477 -0.388454,3.043824 -0.267321,4.539955 0.367568,4.539955 0.196003,0 0.589258,0.253203 0.873901,0.562675 0.284646,0.309472 1.112928,0.965546 1.840627,1.457943 0.727703,0.492396 1.709719,1.32919 2.182263,1.859542 0.797728,0.895309 0.910243,0.93081 1.57327,0.496378 0.392755,-0.257344 1.318736,-1.031712 2.057738,-1.72082 z"
         id="path3858" />
      <path
         style="fill:#d40000;stroke-width:0.32"
         d="m 91.365718,59.624272 c 0.700855,-0.47065 1.346282,-0.93865 1.434282,-1.04 0.240941,-0.277491 1.351469,-0.947347 2.134128,-1.28728 0.635651,-0.27608 0.69359,-0.532944 0.687776,-3.04919 -0.0066,-2.863076 -1.036208,-7.04034 -1.642858,-6.665408 -0.16614,0.102681 -0.236428,-0.01024 -0.156195,-0.250948 0.167981,-0.503939 -0.58423,-1.368364 -1.468653,-1.687744 -0.33319,-0.120323 -0.52502,-0.299548 -0.426288,-0.398278 0.09873,-0.09873 -0.06066,-0.457917 -0.354198,-0.798189 -0.293542,-0.340272 -0.610237,-1.012102 -0.703763,-1.492957 -0.155104,-0.797414 -0.280048,-0.865356 -1.421181,-0.772796 -0.688118,0.05582 -1.547594,0.265321 -1.909946,0.465568 -0.362352,0.200246 -0.884067,0.330057 -1.159369,0.288473 -0.275299,-0.04158 -1.037696,0.288912 -1.694211,0.734435 C 84.028726,44.115482 83.415686,44.48 83.322931,44.48 c -0.09275,0 -0.381469,0.212822 -0.641584,0.472941 -0.260118,0.260115 -0.666505,0.584115 -0.903085,0.72 -0.322812,0.185411 -0.458604,1.483545 -0.544201,5.202448 -0.108666,4.720937 -0.08427,4.961139 0.515654,5.076889 0.346346,0.06683 1.066346,0.45369 1.6,0.859696 0.533658,0.40601 1.366285,0.837018 1.850285,0.957802 0.484,0.120784 0.88,0.347994 0.88,0.504915 0,0.156919 0.18,0.285927 0.4,0.286679 0.22,6.4e-4 1.048,0.432137 1.84,0.95863 0.792,0.526493 1.514573,0.957875 1.605718,0.95863 0.09114,6.4e-4 0.739143,-0.383708 1.44,-0.854358 z"
         id="path3856" />
      <path
         style="fill:#d40000;stroke-width:0.32"
         d="m 71.04,61.794691 c 0,-0.156921 0.36,-0.375664 0.8,-0.486096 0.44,-0.110435 0.8,-0.342045 0.8,-0.514691 0,-0.172646 0.192192,-0.313904 0.427094,-0.313904 0.2349,0 1.507981,-1.044 2.829066,-2.32 C 78.647174,55.50287 78.72,55.302653 78.72,50.396461 V 47.112922 L 77.631638,46.596461 C 77.03304,46.312406 76.39704,46.08 76.218304,46.08 c -0.178733,0 -0.37297,-0.112483 -0.431638,-0.249965 C 75.608211,45.41184 71.333942,43.498333 71.016499,43.694525 70.853424,43.795309 70.72,43.736714 70.72,43.56431 c 0,-0.25536 -1.366762,-0.747779 -2.293334,-0.826243 -0.117332,-0.0099 -0.318711,-0.123446 -0.447504,-0.25224 -0.499738,-0.499734 -1.9624,0.213235 -3.34665,1.631312 C 63.836394,44.932714 62.514288,46.104 61.694502,46.72 l -1.490521,1.12 0.124928,1.736205 c 0.158454,2.202147 0.454342,3.591357 0.876425,4.11488 0.182285,0.226099 0.31936,0.835597 0.304608,1.354441 -0.01475,0.518845 0.109824,1.027805 0.276839,1.131024 0.167011,0.10322 0.231033,0.305181 0.142272,0.448804 -0.325722,0.52703 0.529091,2.254646 1.115584,2.254646 0.320115,0 0.630029,0.137725 0.688697,0.306058 0.196503,0.563827 5.21394,2.87224 6.266666,2.883158 0.572,0.0059 1.04,-0.117606 1.04,-0.274525 z"
         id="path3854" />
      <path
         style="fill:#d40000;stroke-width:0.32"
         d="m 50.56,63.68 c 0,-0.176 0.147088,-0.32 0.326861,-0.32 0.179773,0 0.876611,-0.363808 1.548528,-0.808461 0.671917,-0.444653 1.550662,-0.871821 1.952768,-0.949257 0.688121,-0.132522 4.250121,-3.72353 4.159273,-4.193146 -0.02317,-0.11967 0.100119,-0.30568 0.27393,-0.41336 C 59.025443,56.869347 58.973629,55.836522 58.675091,54.08 58.086557,50.617242 58.087344,50.620675 57.822595,50.35593 57.700166,50.233501 57.6,49.880502 57.6,49.571485 c 0,-0.36657 -0.417082,-0.697431 -1.2,-0.95193 C 55.74,48.405014 55.084845,48.033846 54.944099,47.794739 54.803354,47.555632 54.405786,47.36 54.060611,47.36 53.71544,47.36 52.822595,47.094288 52.076512,46.76953 49.136262,45.489683 46.72,45.037392 46.72,45.766861 c 0,0.179773 -0.36,0.490886 -0.8,0.691363 -0.44,0.20048 -0.8,0.557392 -0.8,0.793142 0,0.235748 -0.108,0.428864 -0.24,0.429143 -0.132,2.78e-4 -1.20839,0.913821 -2.391978,2.030089 -2.013996,1.899453 -2.134422,2.090788 -1.878201,2.984173 0.150576,0.525027 0.380707,2.167488 0.511405,3.649911 0.357302,4.052726 0.254806,3.917648 4.318774,5.691721 0.44,0.192074 1.376,0.70248 2.08,1.134234 1.302458,0.798781 3.04,1.089913 3.04,0.509363 z"
         id="path3852" />
      <path
         style="fill:#d40000;stroke-width:0.32"
         d="M 32.286118,64.406096 C 32.392752,64.250758 32.984,63.924016 33.6,63.68 34.216,63.435984 34.792,63.15616 34.88,63.058166 34.968,62.960176 35.740618,62.52 36.596928,62.08 c 2.112435,-1.085437 2.54489,-1.810342 2.332531,-3.909923 -0.267545,-2.645181 -0.68816,-5.17728 -0.922345,-5.552499 -0.117543,-0.188333 -0.281543,-0.716461 -0.364442,-1.17362 C 37.476282,50.526365 35.945302,48.64 35.366973,48.64 c -0.201978,0 -0.781117,-0.432 -1.286973,-0.96 -0.505856,-0.528 -1.151997,-0.96 -1.435869,-0.96 -0.283872,0 -0.680527,-0.164397 -0.881455,-0.365325 -0.273765,-0.273763 -0.670752,-0.225043 -1.584,0.1944 -3.332453,1.530551 -4.584095,2.191879 -4.924361,2.601872 C 25.049341,49.397926 24.692971,49.6 24.462382,49.6 c -0.432342,0 -0.962624,1.150954 -0.836631,1.815869 0.03917,0.206729 -0.0766,0.467229 -0.257265,0.578886 -0.439965,0.271914 -0.422316,5.560583 0.02282,6.837495 0.193218,0.554262 0.505218,1.00775 0.693334,1.00775 0.188116,0 0.250284,0.09174 0.13815,0.203878 -0.301847,0.30185 1.026037,2.036122 1.559004,2.036122 0.252015,0 0.45821,0.18136 0.45821,0.403024 0,0.392762 0.42876,0.732992 2.4,1.904448 0.981253,0.583133 3.250641,0.594726 3.646118,0.01862 z"
         id="path3850" />
      <path
         style="fill:#d40000;stroke-width:0.32"
         d="M 18.321083,68.72 C 19.413039,68.106886 23.36,64.257434 23.36,63.805568 c 0,-0.21992 -0.18,-0.593837 -0.4,-0.830928 -0.617928,-0.665933 -1.841882,-3.228771 -1.840889,-3.85464 4.8e-4,-0.308 -0.14018,-0.56 -0.312598,-0.56 -0.336099,0 -0.233766,-4.52024 0.160101,-7.07193 0.213923,-1.385913 0.17073,-1.51214 -0.739106,-2.16 C 19.69604,48.949632 19.11825,48.64 18.943529,48.64 c -0.65817,0 -3.555332,3.637514 -4.16227,5.225914 -1.112047,2.910304 -1.503389,5.241276 -1.077623,6.41871 0.207,0.572448 0.376364,1.380368 0.376364,1.795376 0,0.86281 0.474817,2.432941 1.329531,4.396512 C 15.734289,67.222595 16,68.026595 16,68.263178 c 0,0.933107 1.090556,1.147744 2.321083,0.456822 z"
         id="path3848" />
      <path
         style="fill:#d40000;stroke-width:0.32"
         d="m 95.166803,78.211123 c 0.107399,-0.279885 0.114307,-0.639885 0.01536,-0.8 -0.09896,-0.160118 0.02915,-0.291123 0.284723,-0.291123 0.771402,0 1.456631,-2.227517 1.704276,-5.540205 0.191043,-2.555504 -0.245376,-4.636425 -1.527434,-7.283081 -0.508045,-1.0488 -0.925923,-2.084615 -0.928618,-2.301812 -0.01389,-1.119897 -0.537468,-1.241868 -1.762444,-0.410579 -1.63184,1.107399 -1.99682,1.694554 -2.105901,3.387843 -0.05059,0.785309 -0.19425,1.643834 -0.319239,1.907834 -0.124992,0.264 -0.601753,2.108506 -1.059472,4.098906 l -0.832214,3.618902 1.009296,0.861098 c 1.315475,1.122316 2.222614,1.635737 2.914874,1.649753 0.308,0.0062 0.56,0.175466 0.56,0.376064 0,0.42448 0.952988,1.210275 1.485763,1.225101 0.201171,0.0056 0.453638,-0.218819 0.56104,-0.498701 z"
         id="path3846" />
      <path
         style="fill:#d40000;stroke-width:0.32"
         d="m 83.6,76.412106 c 0.484,-0.398794 0.880912,-0.870663 0.882022,-1.048592 9.6e-4,-0.177933 0.41282,-0.557168 0.914903,-0.842749 0.502083,-0.285578 0.991414,-0.861578 1.087398,-1.28 0.09598,-0.418419 0.604253,-2.632765 1.129482,-4.920765 1.011213,-4.405011 1.095181,-5.754701 0.358877,-5.768458 -0.676224,-0.01264 -1.288445,-0.47479 -1.078647,-0.814252 0.168704,-0.272967 -1.174217,-1.027975 -1.934035,-1.087341 -0.176,-0.01376 -0.993946,-0.489616 -1.817658,-1.057475 -0.823708,-0.567863 -1.759708,-1.034679 -2.08,-1.037373 -0.320288,-0.0026 -0.783708,-0.1324 -1.029824,-0.288231 -0.297235,-0.188198 -0.65584,-0.08922 -1.068035,0.294807 -0.341309,0.317974 -0.571939,0.645104 -0.512521,0.726957 C 78.5792,59.463901 75.030838,62.4 74.691789,62.4 c -0.127258,0 -0.703363,0.36 -1.280234,0.8 -0.57687,0.44 -1.21807,0.8 -1.424896,0.8 -0.2388,0 -0.304557,0.284813 -0.180176,0.780387 0.107728,0.429216 0.04291,0.874925 -0.144045,0.990464 -0.186947,0.115543 -0.25567,0.593607 -0.152713,1.062365 0.102957,0.468758 0.239129,2.344506 0.302608,4.168323 0.0737,2.117587 0.254,3.401687 0.49887,3.553024 0.210903,0.130346 0.362378,0.362791 0.336608,0.516544 -0.02576,0.153754 0.357933,0.390298 0.852669,0.525651 0.494736,0.135354 2.193741,0.88121 3.775568,1.657456 l 2.876048,1.41136 1.283952,-0.764195 C 82.142221,77.481072 83.116,76.810899 83.6,76.412106 Z"
         id="path3844" />
      <path
         style="fill:#d40000;stroke-width:0.32"
         d="m 62.48,79.194336 c 0.308,-0.122544 0.56,-0.351402 0.56,-0.508573 0,-0.157168 0.216,-0.285763 0.48,-0.285763 0.264,0 0.48,-0.152499 0.48,-0.338886 0,-0.186388 0.134051,-0.256039 0.297888,-0.154781 0.16384,0.101261 0.394406,0.02794 0.512368,-0.162928 0.117965,-0.190871 0.415914,-0.269738 0.662112,-0.175264 0.263123,0.100969 0.447632,-0.02973 0.447632,-0.317069 0,-0.268864 0.122192,-0.413325 0.271539,-0.321024 0.149344,0.0923 0.553203,-0.0792 0.897466,-0.381114 0.344259,-0.301913 0.899286,-0.704352 1.233392,-0.894304 0.727513,-0.413622 0.861033,-1.214528 0.902678,-5.41463 0.04623,-4.662742 -0.422531,-5.565907 -3.763101,-7.250346 -1.406185,-0.709046 -2.893148,-1.55383 -3.304364,-1.877292 -0.411216,-0.32346 -1.19146,-0.685584 -1.733876,-0.80472 -0.866009,-0.190208 -1.134,-0.05971 -2.198787,1.070726 -0.666918,0.708032 -1.279945,1.219968 -1.362281,1.137629 -0.08234,-0.08234 -0.418119,0.190073 -0.746186,0.605353 -0.328064,0.415284 -1.02848,0.972375 -1.55648,1.237984 -1.628589,0.819261 -2.550202,1.386964 -2.785245,1.715674 -0.297584,0.416182 -0.02557,6.122045 0.354199,7.429683 0.346585,1.193395 1.059817,1.998442 2.511046,2.834298 0.572,0.329449 1.04,0.696317 1.04,0.815261 0,0.11894 0.612,0.459974 1.36,0.757846 0.748,0.297875 1.576,0.730643 1.84,0.961709 0.84239,0.737305 2.239773,0.861725 3.6,0.320531 z"
         id="path3842" />
      <path
         style="fill:#d40000;stroke-width:0.32"
         d="m 43.576499,79.933789 c 3.600544,-1.819824 6.871955,-5.099607 6.09864,-6.114243 -0.159101,-0.208752 -0.324086,-1.602036 -0.366637,-3.096192 -0.04255,-1.494157 -0.21542,-2.882999 -0.38416,-3.086317 C 48.755603,67.433718 48.658598,67.090896 48.708771,66.87521 48.824234,66.378883 47.117859,65.334304 46.141114,65.303389 45.734288,65.290525 45.491107,65.136189 45.6,64.96 c 0.108774,-0.176 0.04566,-0.32 -0.140259,-0.32 -0.18592,0 -1.252362,-0.432 -2.369875,-0.96 -1.117517,-0.528 -2.2769,-0.96 -2.576407,-0.96 -0.299507,0 -1.377616,0.553331 -2.395795,1.229622 -1.018176,0.676292 -2.307178,1.431444 -2.864448,1.678116 C 34.695949,65.87441 34.24,66.17391 34.24,66.293299 c 0,0.119386 -0.52416,0.390058 -1.1648,0.601488 l -1.164802,0.384416 0.18077,2.790221 C 32.28177,73.011373 33.53921,78.72 33.99663,78.72 c 0.148106,0 0.668148,0.294893 1.155648,0.655318 0.487501,0.360423 1.201671,0.679066 1.587044,0.708096 0.385372,0.02902 0.700678,0.166138 0.700678,0.304682 0,0.138547 0.351501,0.251904 0.781114,0.251904 0.429612,0 0.870112,0.144 0.978886,0.32 0.384909,0.622797 1.744806,0.303923 4.376499,-1.026211 z"
         id="path3840" />
      <path
         style="fill:#d40000;stroke-width:0.32"
         d="m 26.24,84.298685 c 0.616,-0.868275 2.031249,-2.474733 3.144997,-3.569904 l 2.024998,-1.991216 -0.648013,-2.562541 C 30.405576,74.765626 29.936889,72.193568 29.720457,70.459334 29.336372,67.381731 29.303381,67.296605 28.343472,66.906269 26.590134,66.193286 25.92,65.81713 25.92,65.545926 25.92,65.399667 25.704,65.28 25.44,65.28 c -0.264,0 -0.48,0.160781 -0.48,0.357286 0,0.196509 -0.864,1.210628 -1.92,2.253597 -1.056,1.04297 -1.92,2.149392 -1.92,2.458714 0,0.309321 -0.122676,0.699203 -0.272614,0.866403 -0.382662,0.42672 -1.106046,5.729037 -0.879136,6.443965 0.102931,0.324307 0.270523,1.307485 0.372426,2.184841 0.101903,0.877357 0.318939,1.643194 0.482301,1.70186 0.163363,0.05867 0.297023,0.324438 0.297023,0.590601 0,0.825971 1.979994,3.34576 2.92,3.716067 0.741627,0.292154 1.038736,0.0822 2.2,-1.554649 z"
         id="path3838" />
      <path
         style="fill:#d40000;stroke-width:0.32"
         d="M 21.67955,93.442362 C 23.254911,92.681229 23.250415,92.687488 23.52,90.88 c 0.117017,-0.784563 0.273355,-1.524525 0.347417,-1.644362 0.298835,-0.483523 -0.318096,-1.251408 -1.616941,-2.012582 -1.483294,-0.869267 -3.033153,-3.00183 -3.86397,-5.316717 C 18.006738,80.848198 17.877703,79.32352 17.88665,76 17.893283,73.536 17.7955,71.683341 17.669355,71.882982 17.54321,72.082621 17.152,72.300595 16.8,72.367363 c -0.352,0.06677 -0.64,0.335431 -0.64,0.597021 0,0.261587 -0.239323,0.691616 -0.53183,0.955616 -0.292506,0.264 -0.919855,1.827936 -1.39411,3.475411 -1.220441,4.239607 -1.066713,6.384893 0.718043,10.020304 0.88163,1.795815 1.886733,3.258989 2.949776,4.294131 1.390237,1.353748 2.367792,2.297677 2.438016,2.354154 0.01094,0.0088 0.613787,-0.270938 1.339655,-0.621638 z"
         id="path3836" />
      <path
         style="fill:#d40000;stroke-width:0.32"
         d="m 90.227635,93.734653 c 0.7108,-0.717939 1.292365,-1.581939 1.292365,-1.92 0,-0.338058 0.171712,-0.578653 0.381584,-0.534653 0.659978,0.138365 1.958016,-3.865488 2.380451,-7.342602 0.187517,-1.543449 0.135059,-1.726915 -0.731945,-2.56 -1.557168,-1.496243 -2.352551,-2.083785 -5.13962,-3.796585 l -1.349529,-0.829354 -1.130471,0.86225 C 85.30871,78.087949 84.8,78.60287 84.8,78.757981 84.8,78.913091 84.60799,79.04 84.373315,79.04 c -0.234675,0 -0.985155,0.482758 -1.667731,1.0728 -1.229203,1.06256 -1.23584,1.080742 -0.695619,1.905226 0.388707,0.593238 0.465939,1.043555 0.268784,1.5672 -0.160733,0.426908 -0.134672,2.126409 0.0622,4.056156 l 0.338848,3.321383 1.300103,0.951814 c 0.715056,0.523501 1.493865,1.029565 1.730684,1.124592 0.236823,0.09502 0.880916,0.584087 1.431316,1.0868 0.550403,0.502717 1.179078,0.914029 1.397052,0.914029 0.217975,0 0.977882,-0.587405 1.688685,-1.305347 z"
         id="path3834" />
      <path
         style="fill:#d40000;stroke-width:0.32"
         d="m 73.309782,96.212138 c 1.162128,-0.504119 5.895559,-3.948407 6.582394,-4.78969 0.204698,-0.250726 0.324698,-0.943347 0.266669,-1.539158 C 80.100816,89.287482 79.951085,87.72 79.826109,86.4 79.701136,85.08 79.473133,83.952 79.31944,83.893334 79.165747,83.834666 79.04,83.157565 79.04,82.388662 c 0,-1.364867 -0.04361,-1.423296 -1.84,-2.465065 -1.012,-0.586883 -2.488,-1.267722 -3.28,-1.51297 -0.792,-0.245251 -1.584,-0.543171 -1.76,-0.662048 -1.003421,-0.67775 -1.89056,-0.549382 -3.40561,0.492787 -0.864227,0.594484 -1.857603,1.171741 -2.2075,1.282794 -0.349901,0.111056 -0.553594,0.335549 -0.45265,0.49888 0.100941,0.163328 -0.01392,0.29696 -0.255248,0.29696 -0.644266,0 -2.944752,1.164477 -3.411478,1.726848 -0.221437,0.266813 -0.31105,0.633264 -0.199146,0.814333 0.111907,0.181069 0.203309,2.023376 0.203117,4.094016 -2.91e-4,3.10127 0.09675,3.8776 0.55063,4.404803 0.761015,0.883962 4.344583,3.62743 4.890944,3.744352 0.245818,0.05261 0.534282,0.214723 0.641034,0.360256 0.477494,0.650966 2.117385,1.422154 2.845907,1.338336 0.44,-0.05062 1.317402,-0.316483 1.949782,-0.590806 z"
         id="path3832" />
      <path
         style="fill:#d40000;stroke-width:0.32"
         d="m 53.448797,96.422294 c 0.883187,-0.60022 4.919414,-4.044387 5.911203,-5.044108 0.567546,-0.572084 0.639914,-1.0729 0.639248,-4.423789 -6.4e-4,-3.007399 -0.09857,-3.840509 -0.48,-4.081632 -0.263587,-0.166631 -0.344096,-0.305171 -0.178909,-0.307866 0.44993,-0.0073 -0.860217,-1.144294 -1.99455,-1.73088 C 56.799085,80.551309 56.139082,80.32 55.879117,80.32 c -0.259965,0 -0.75584,-0.36 -1.101946,-0.8 -0.346105,-0.44 -0.752557,-0.800339 -0.903225,-0.800752 -0.150669,-3.2e-4 -0.775533,-0.42943 -1.388583,-0.953373 l -1.11464,-0.952624 -1.432288,1.353373 C 49.150678,78.910982 48.312099,79.772 48.074928,80.08 c -0.237171,0.308 -0.639053,0.56 -0.893072,0.56 -0.254022,0 -0.461856,0.127206 -0.461856,0.282678 0,0.155472 -0.252,0.362596 -0.56,0.460272 -0.704611,0.223456 -2.415917,1.249546 -2.675776,1.604381 -0.10768,0.147034 -0.32368,0.291034 -0.48,0.32 -0.378787,0.07019 -0.215104,4.564931 0.19408,5.329501 0.176934,0.330602 0.321696,1.616755 0.321696,2.858115 v 2.257024 l 1.2,0.740163 c 0.66,0.407088 1.848,0.929309 2.64,1.160487 0.792,0.231181 1.728,0.541923 2.08,0.690541 0.60879,0.257036 1.660819,0.478044 2.728797,0.57326 0.268841,0.02397 0.844841,-0.19839 1.28,-0.494128 z"
         id="path3830" />
      <path
         style="fill:#d40000;stroke-width:0.32"
         d="m 36.8,97.65767 c 0,-0.144281 0.725898,-0.636358 1.613107,-1.093507 2.592768,-1.335965 2.91736,-1.951949 2.689626,-5.104115 C 40.99703,89.997021 40.780528,87.864 40.621613,86.72 40.462698,85.576 40.329824,84.46 40.326339,84.24 40.322851,84.02 40.0608,83.84 39.744,83.84 c -0.3168,0 -0.7128,-0.135386 -0.88,-0.300858 -0.1672,-0.165472 -0.686979,-0.369574 -1.155062,-0.453561 -0.468087,-0.08399 -1.535645,-0.534903 -2.372359,-1.002035 -2.311859,-1.290698 -3.09016,-1.18281 -4.78507,0.663296 -0.790042,0.860518 -1.517035,1.818508 -1.615539,2.12887 C 28.837466,85.18607 28.622576,85.44 28.458436,85.44 28.294296,85.44 28.16,85.656 28.16,85.92 c 0,0.264 -0.1102,0.48 -0.24489,0.48 -0.265058,0 -1.262349,2.541446 -1.845009,4.701725 -0.528078,1.95791 -0.126971,2.365369 5.129899,5.211142 0.88,0.476384 2.032,1.021504 2.56,1.211379 1.156499,0.415892 3.04,0.498557 3.04,0.133424 z"
         id="path3828" />
      <path
         style="fill:#d40000;stroke-width:0.32"
         d="m 78.907408,110.64 c 0.502547,-0.396 1.781968,-1.16417 2.843155,-1.70704 1.061191,-0.54287 1.929437,-1.15487 1.929437,-1.36 0,-0.20513 0.144,-0.40105 0.32,-0.43539 0.500026,-0.0975 1.947597,-2.24335 2.34057,-3.46955 0.195305,-0.60941 0.381088,-2.36716 0.412848,-3.90611 0.05471,-2.650796 0.01478,-2.831878 -0.758308,-3.44 C 85.546278,95.968861 85.065645,95.68 84.927037,95.68 c -0.138608,0 -0.636106,-0.367981 -1.105549,-0.817738 -1.276157,-1.222633 -2.588976,-1.266396 -3.878822,-0.129302 -0.584468,0.515248 -1.195328,0.939117 -1.357469,0.94193 -0.162141,0.0029 -0.53065,0.21855 -0.818909,0.47942 -0.571366,0.517079 -2.789245,1.815408 -4.350054,2.54649 -0.904548,0.423693 -0.97562,0.571856 -0.882599,1.84 0.05564,0.75856 0.113213,3.07986 0.127933,5.15845 0.02531,3.57419 0.06452,3.79353 0.722598,4.04243 0.382708,0.14475 0.803834,0.19958 0.935834,0.12186 0.132,-0.0777 0.24,-0.006 0.24,0.16025 0,0.16586 0.324,0.41173 0.72,0.54638 0.396,0.13464 1.008,0.35308 1.36,0.48542 1.03888,0.39058 1.306614,0.34151 2.267408,-0.41559 z"
         id="path3826" />
      <path
         style="fill:#d40000;stroke-width:0.32"
         d="m 63.772598,111.52292 c 1.491284,-0.28536 2.9673,-0.79954 3.674282,-1.27994 0.64993,-0.44164 1.353974,-0.80298 1.564547,-0.80298 0.210573,0 0.595127,-0.21227 0.854563,-0.47171 0.579127,-0.57912 0.683357,-5.91688 0.161501,-8.27042 C 69.700982,99.225344 69.563965,99.077309 66.991629,97.417872 65.509971,96.462042 64.163789,95.68 64.000112,95.68 63.836435,95.68 63.548384,95.392 63.36,95.04 63.171616,94.688 62.729907,94.4 62.378429,94.4 c -0.368954,0 -0.75073,-0.301894 -0.903283,-0.714282 -0.259248,-0.700816 -0.285367,-0.692515 -1.38553,0.440349 -0.616714,0.63505 -1.969171,1.841107 -3.005456,2.680131 -1.036288,0.839024 -1.967939,1.684864 -2.070336,1.879648 -0.102394,0.194784 -0.05536,1.650154 0.104515,3.234154 0.159879,1.584 0.348295,3.6 0.418701,4.48 0.203891,2.54836 0.275744,2.70085 1.602922,3.40194 0.69302,0.36609 1.728038,0.95016 2.300038,1.29794 0.572,0.34777 1.04,0.51977 1.04,0.38222 0,-0.13756 0.1728,-0.0773 0.384,0.1339 0.2112,0.2112 0.3912,0.38397 0.4,0.38395 0.0088,-4e-5 1.13767,-0.2147 2.508598,-0.47703 z"
         id="path3824" />
      <path
         style="fill:#d40000;stroke-width:0.32"
         d="m 49.12,112.32 c 0.108774,-0.176 0.420486,-0.32 0.692691,-0.32 0.272208,0 0.89361,-0.324 1.380893,-0.72 0.487283,-0.396 1.26136,-0.99013 1.720173,-1.3203 0.458809,-0.33017 0.77127,-0.70212 0.694358,-0.82657 -0.106883,-0.17294 -1.132947,-5.72641 -1.578016,-8.54085 C 51.925114,99.9284 51.133232,99.2 50.516477,99.2 c -0.332839,0 -0.855207,-0.139907 -1.160819,-0.310906 -0.305613,-0.170998 -1.59386,-0.607369 -2.862775,-0.969715 -1.268915,-0.362342 -2.393414,-0.798435 -2.498886,-0.969094 -0.373399,-0.604167 -1.785376,-0.300394 -2.648093,0.569715 -0.479888,0.484 -1.267037,1.084333 -1.749216,1.334074 -0.482179,0.24974 -0.876688,0.57374 -0.876688,0.72 0,0.146259 -0.278298,0.265926 -0.618435,0.265926 -1.356231,0 -1.34744,1.87372 0.02976,6.34471 0.427033,1.38633 1.958685,2.89572 3.952742,3.89529 0.87776,0.44 1.667927,0.88713 1.755927,0.99363 0.088,0.10649 0.697993,0.369 1.355542,0.58334 0.657549,0.21435 1.278048,0.52322 1.378886,0.68638 0.246279,0.39848 2.296487,0.37968 2.545572,-0.0234 z"
         id="path3822" />
      <path
         style="fill:#d40000;stroke-width:0.32"
         d="m 35.894733,111.28 c 0.03011,-0.748 0.06751,-1.72 0.08312,-2.16 0.01562,-0.44 -0.09302,-1.304 -0.241415,-1.92 -0.269757,-1.11983 -0.722205,-3.39802 -1.065174,-5.36342 C 34.513302,100.93139 32.908995,99.267456 32.32,99.397933 32.021885,99.463974 30.56792,98.742253 28.554364,97.528739 27.451264,96.863933 26.472979,96.32 26.380398,96.32 c -0.09258,0 -0.556574,-0.36 -1.031094,-0.8 -1.068659,-0.990915 -1.142787,-0.99009 -2.477123,0.02765 -1.202246,0.916998 -1.199745,0.865434 -0.23927,4.93234 1.415285,5.9927 4.901409,9.97978 9.971467,11.40436 3.336812,0.93757 3.227491,0.95765 3.290355,-0.60436 z"
         id="path3820" />
      <path
         style="fill:#d40000;stroke-width:0.32"
         d="m 69.76,119.66924 c 2.613635,-0.78743 5.885699,-3.22965 6.890768,-5.14317 0.428976,-0.81671 0.410266,-0.843 -0.906374,-1.27305 -0.739418,-0.24151 -2.103847,-0.74561 -3.032068,-1.12022 C 71.044342,111.45963 69.44,111.43896 69.44,112.0906 c 0,0.18481 -0.09651,0.23952 -0.214454,0.12157 -0.117952,-0.11795 -0.516064,-0.0168 -0.884695,0.2247 -0.36863,0.24154 -1.172125,0.54523 -1.785545,0.67488 -1.35768,0.28694 -3.268138,1.13263 -3.595389,1.59154 -0.282643,0.39635 -0.918375,2.6068 -1.025949,3.56725 -0.04131,0.36882 -0.17785,0.83682 -0.303424,1.04 -0.125574,0.20318 -0.147072,0.50087 -0.04778,0.66154 0.266672,0.43147 6.506944,0.20034 8.177235,-0.30288 z"
         id="path3818" />
      <path
         style="fill:#d40000;stroke-width:0.32"
         d="m 52.66959,121.19708 c 0.130394,-0.1304 0.56458,-0.23708 0.964858,-0.23708 0.400278,0 0.816778,-0.144 0.925552,-0.32 0.108774,-0.176 0.675686,-0.32 1.259805,-0.32 1.092771,0 3.205104,-0.73781 3.505942,-1.22458 0.29209,-0.47261 0.758269,-3.95687 0.606871,-4.53581 -0.190087,-0.7269 -3.023136,-2.18466 -4.492618,-2.3117 -0.22,-0.019 -0.402205,-0.26258 -0.404899,-0.54124 -0.0029,-0.31262 -0.09494,-0.37604 -0.24,-0.16559 -0.129306,0.1876 -1.063101,0.8856 -2.075101,1.55112 -1.012,0.66552 -1.84,1.30917 -1.84,1.43034 0,0.27327 -0.830435,0.39573 -2.8,0.41293 -1.679728,0.0147 -3.6,-0.33401 -3.6,-0.65367 0,-0.11306 -0.468,-0.40919 -1.04,-0.65805 -0.572,-0.24886 -1.112,-0.54606 -1.2,-0.66044 -0.088,-0.11438 -0.979917,-0.64769 -1.982035,-1.18513 l -1.822035,-0.97716 -0.210512,1.68488 c -0.115783,0.92669 -0.119248,1.97244 -0.0077,2.32389 0.309283,0.97447 4.012905,4.63143 5.505849,5.43649 0.727965,0.39255 1.807965,0.71592 2.4,0.71862 0.592039,0.003 1.282519,0.13531 1.534397,0.29471 0.534198,0.33805 4.662554,0.28654 5.011626,-0.0625 z"
         id="path3816" />
    </g>
    <path
       style="fill:#008080;stroke-width:0.32"
       d="m 51.92,27.795194 c 1.188,-0.207731 2.16,-0.475023 2.16,-0.593984 0,-0.263697 2.150704,-0.4522 4.32,-0.378637 3.943664,0.133735 8.218902,0.05879 8.55672,-0.149989 0.438669,-0.271111 2.803808,-0.182084 5.67319,0.213549 1.494941,0.206123 2.133517,0.182488 2.298887,-0.08509 C 75.054733,26.597277 75.086774,26.315682 75,26.175279 74.913226,26.034876 75.009715,25.92 75.214416,25.92 c 0.33009,0 1.700944,-1.329788 4.993674,-4.844078 0.554451,-0.591757 1.526451,-1.486105 2.16,-1.987439 0.633552,-0.501335 1.15191,-1.039689 1.15191,-1.196343 0,-0.499794 1.088304,-1.606293 2.08,-2.114774 1.103933,-0.566028 2.4,-1.685586 2.4,-2.073146 0,-0.145321 -1.26,-0.263682 -2.8,-0.263024 -2.206122,9.28e-4 -3.015872,0.132823 -3.817782,0.621786 -0.559783,0.341324 -1.279783,0.623619 -1.6,0.627322 -2.814103,0.03254 -4.141725,0.465872 -5.855207,1.911123 -0.964144,0.813215 -2.008144,1.730573 -2.32,2.038573 -0.311856,0.308 -0.683859,0.56 -0.826672,0.56 -0.142813,0 -0.545043,0.265874 -0.893843,0.59083 -0.3488,0.324957 -1.059952,0.794095 -1.580339,1.042529 -0.819539,0.391252 -0.959018,0.650083 -1.042259,1.934147 -0.09499,1.465197 -1.056503,2.906525 -1.58586,2.377224 -0.130921,-0.130907 -0.246355,-3.24634 -0.256518,-6.923185 -0.01018,-3.676844 -0.116784,-6.783476 -0.236934,-6.903627 -0.784989,-0.784989 -2.435767,1.598278 -2.611117,3.769735 -0.03765,0.466209 -0.52408,1.422931 -1.08096,2.126049 C 60.935629,17.91682 60.48,18.619653 60.48,18.775553 c 0,0.1559 -0.85984,1.215178 -1.910758,2.353951 -1.09753,1.189284 -2.084932,2.614097 -2.32,3.347743 -0.493648,1.540676 -1.356215,1.855713 -1.668976,0.609565 -0.244711,-0.974998 0.264502,-2.511699 1.168092,-3.525076 0.843565,-0.946054 0.547924,-1.804227 -1.609596,-4.672264 C 53.138442,15.559727 52.032,14.082696 51.68,13.60718 49.730896,10.974141 48.02216,9.7064973 48.407306,11.179299 c 0.08907,0.340614 -0.0462,0.91647 -0.300599,1.27968 -0.612029,0.873793 -0.949363,6.784907 -0.482704,8.458395 C 48.069008,22.513205 47.786042,24 47.037322,24 c -0.7917,0 -0.980839,-0.876628 -1.182464,-5.480588 L 45.677901,14.478825 43.290944,11.799412 C 41.978118,10.325736 40.772592,9.072 40.611994,9.0133334 40.450397,8.9543011 40.32,10.133251 40.32,11.653333 40.32,13.164 40.44839,14.4 40.605309,14.4 c 0.377312,0 0.72392,1.411967 0.789603,3.216572 0.0445,1.222568 0.23231,1.619484 1.169053,2.47062 0.613817,0.557726 1.296035,1.018268 1.516035,1.023428 0.22,0.0052 0.374288,0.11738 0.342864,0.24938 -0.03142,0.132 0.328573,1.058773 0.8,2.059495 1.019254,2.163631 1.074896,2.820505 0.238925,2.820505 -0.575498,0 -1.877338,-1.418042 -1.866723,-2.033345 0.0092,-0.533749 -2.398378,-3.137965 -3.230052,-3.493855 -0.464758,-0.198878 -1.274512,-0.654276 -1.799456,-1.011995 -2.7715,-1.888624 -7.954896,-2.46974 -11.602823,-1.300805 -1.098495,0.352 -1.989582,0.784 -1.980192,0.96 0.01783,0.334154 2.692605,2.4 3.107427,2.4 0.13097,0 0.508475,0.36 0.838902,0.8 0.330426,0.44 0.718059,0.8 0.861406,0.8 0.143347,0 0.592358,0.324 0.997803,0.72 0.405444,0.396 1.225999,1.08 1.823455,1.52 0.597459,0.44 1.460275,1.182068 1.917376,1.64904 l 0.831088,0.849041 2.155434,-0.54969 c 1.927568,-0.491579 2.536147,-0.506277 5.756668,-0.139035 1.989952,0.226917 3.653972,0.568868 3.719104,0.764264 0.123693,0.371077 1.048496,0.300071 4.928794,-0.378426 z"
       id="path3868"
       transform="matrix(2.4720077,0,0,2.4720077,-24.160952,-17.402934)" />
  </g>
  <metadata
     id="metadata3194">
    <rdf:RDF>
      <cc:License
         rdf:about="http://creativecommons.org/publicdomain/zero/1.0/">
        <cc:permits
           rdf:resource="http://creativecommons.org/ns#Reproduction" />
        <cc:permits
           rdf:resource="http://creativecommons.org/ns#Distribution" />
        <cc:permits
           rdf:resource="http://creativecommons.org/ns#DerivativeWorks" />
      </cc:License>
      <cc:Work
         rdf:about="">
        <cc:license
           rdf:resource="http://creativecommons.org/publicdomain/zero/1.0/" />
        <dc:creator>
          <cc:Agent>
            <dc:title>Stipo Pavlovic</dc:title>
          </cc:Agent>
        </dc:creator>
      </cc:Work>
    </rdf:RDF>
  </metadata>
</svg>
