<svg width="56" height="71" viewBox="0 0 56 71" fill="none" xmlns="http://www.w3.org/2000/svg">
<path d="M22.5703 22.7063C22.4868 22.7069 22.4036 22.7401 22.3428 22.8063C21.0868 24.1734 20.3203 25.9972 20.3203 28.0001C20.3203 30.003 21.0868 31.8268 22.3428 33.1938C22.4644 33.3263 22.6745 33.3259 22.8016 33.1988L23.4828 32.5176C23.6054 32.395 23.6046 32.2 23.4884 32.0713C22.514 30.9929 21.9203 29.5646 21.9203 28.0001C21.9203 26.4356 22.514 25.0072 23.4884 23.9288C23.6046 23.8002 23.6054 23.6055 23.4828 23.4826L22.8016 22.8013C22.738 22.7378 22.6538 22.7057 22.5703 22.7063ZM33.4303 22.7063C33.3468 22.7058 33.2626 22.7378 33.1991 22.8013L32.5172 23.4832C32.3946 23.6058 32.3954 23.8002 32.5116 23.9288C33.4863 25.0069 34.0803 26.4356 34.0803 28.0001C34.0803 29.5646 33.4866 30.9929 32.5122 32.0713C32.396 32.2 32.3953 32.3947 32.5178 32.5176L33.1991 33.1988C33.3261 33.3259 33.5362 33.326 33.6578 33.1938C34.9138 31.8268 35.6803 30.003 35.6803 28.0001C35.6803 25.9972 34.9138 24.1734 33.6578 22.8063C33.597 22.7401 33.5139 22.7069 33.4303 22.7063ZM31.4003 24.7482C31.314 24.7439 31.2258 24.7746 31.1591 24.8413L30.4772 25.5232C30.3623 25.6381 30.3497 25.8231 30.4541 25.9476C30.92 26.5037 31.2003 27.2196 31.2003 28.0001C31.2003 28.7806 30.92 29.4961 30.4541 30.052C30.3497 30.1764 30.3623 30.3615 30.4772 30.4763L31.1591 31.1588C31.2925 31.2923 31.5099 31.2803 31.6334 31.1376C32.3605 30.2963 32.8003 29.1994 32.8003 28.0001C32.8003 26.8007 32.3605 25.7039 31.6334 24.8626C31.5717 24.7912 31.4867 24.7525 31.4003 24.7482ZM24.6003 24.7488C24.514 24.7531 24.4289 24.7919 24.3672 24.8632C23.6401 25.7042 23.2003 26.8007 23.2003 28.0001C23.2003 29.1994 23.6401 30.2963 24.3672 31.1376C24.4907 31.2803 24.7081 31.2923 24.8416 31.1588L25.5234 30.477C25.6383 30.3621 25.6509 30.1771 25.5466 30.0526C25.0806 29.4964 24.8003 28.7806 24.8003 28.0001C24.8003 27.2196 25.0806 26.5041 25.5466 25.9482C25.6509 25.8237 25.6383 25.6387 25.5234 25.5238L24.8416 24.8413C24.7748 24.7746 24.6867 24.7446 24.6003 24.7488ZM28.0003 26.0801C26.9398 26.0801 26.0803 26.9396 26.0803 28.0001C26.0803 29.0606 26.9398 29.9201 28.0003 29.9201C29.0608 29.9201 29.9203 29.0606 29.9203 28.0001C29.9203 26.9396 29.0608 26.0801 28.0003 26.0801Z" fill="#E30000"/>
<rect x="19.25" y="19.25" width="17.5" height="17.5" rx="8.75" stroke="#E30000" stroke-width="0.5"/>
<path d="M17.2969 63.438H19.3199C19.3969 64.229 19.2219 64.866 18.7809 65.349C18.3399 65.832 17.7869 66.07 17.1079 66.07C16.4149 66.07 15.8269 65.832 15.3299 65.356C14.8329 64.88 14.5879 64.278 14.5879 63.55C14.5879 62.829 14.8399 62.227 15.3369 61.751C15.8409 61.268 16.4289 61.03 17.1079 61.03C17.7449 61.03 18.2839 61.226 18.7389 61.611L18.2699 62.143C17.9409 61.884 17.5699 61.758 17.1569 61.758C16.6739 61.758 16.2539 61.926 15.9039 62.269C15.5609 62.612 15.3859 63.039 15.3859 63.55C15.3859 64.068 15.5539 64.495 15.8899 64.838C16.2259 65.174 16.6389 65.342 17.1219 65.342C17.9269 65.342 18.4799 64.936 18.6129 64.089H17.2969V63.438ZM20.8149 61.744C21.3119 61.268 21.9069 61.03 22.5859 61.03C23.2649 61.03 23.8599 61.268 24.3569 61.744C24.8539 62.22 25.1059 62.822 25.1059 63.55C25.1059 64.278 24.8539 64.88 24.3569 65.356C23.8599 65.832 23.2649 66.07 22.5859 66.07C21.9069 66.07 21.3119 65.832 20.8149 65.356C20.3179 64.88 20.0659 64.278 20.0659 63.55C20.0659 62.822 20.3179 62.22 20.8149 61.744ZM21.3749 64.838C21.7179 65.174 22.1169 65.342 22.5859 65.342C23.0549 65.342 23.4539 65.174 23.7969 64.838C24.1399 64.495 24.3079 64.068 24.3079 63.55C24.3079 63.032 24.1399 62.605 23.7969 62.269C23.4539 61.926 23.0549 61.758 22.5859 61.758C22.1169 61.758 21.7179 61.926 21.3749 62.269C21.0319 62.605 20.8639 63.032 20.8639 63.55C20.8639 64.068 21.0319 64.495 21.3749 64.838ZM28.5338 61.1V65.286H30.6128V66H27.7638V61.1H28.5338ZM31.4166 61.1H32.1866V66H31.4166V61.1ZM35.3049 65.034L36.9359 61.1H37.7549L35.6759 66H34.9339L32.8549 61.1H33.6739L35.3049 65.034ZM39.1915 63.886V65.286H41.4105V66H38.4215V61.1H41.3475V61.814H39.1915V63.186H40.8505V63.886H39.1915Z" fill="#E30000"/>
</svg>
