<svg width="19" height="19" viewBox="0 0 19 19" fill="none" xmlns="http://www.w3.org/2000/svg">
<path fill-rule="evenodd" clip-rule="evenodd" d="M10.4894 1.29318C12.2085 -0.425851 14.9956 -0.425851 16.7146 1.29318C18.4336 3.01221 18.4336 5.79932 16.7146 7.51832L15.6431 8.58992C15.2915 8.94152 14.7214 8.94152 14.3697 8.58992C14.0181 8.23822 14.0181 7.66812 14.3697 7.31652L15.4413 6.24502C16.4571 5.22923 16.4571 3.5823 15.4413 2.56651C14.4255 1.55072 12.7786 1.55072 11.7628 2.56651L8.22572 6.10354C7.20992 7.11932 7.20992 8.76622 8.22572 9.78202C8.57742 10.1336 8.57742 10.7037 8.22572 11.0554C7.87412 11.407 7.30402 11.407 6.95243 11.0554C5.2334 9.33632 5.2334 6.54924 6.95243 4.83021L10.4894 1.29318ZM9.78202 6.95243C10.1336 6.60081 10.7037 6.60081 11.0554 6.95243C12.7744 8.67142 12.7744 11.4585 11.0554 13.1776L7.51832 16.7146C5.79932 18.4336 3.01221 18.4336 1.29318 16.7146C-0.425851 14.9956 -0.425851 12.2085 1.29318 10.4894L2.41498 9.36762C2.7666 9.01602 3.33669 9.01602 3.68831 9.36762C4.03993 9.71932 4.03993 10.2893 3.68831 10.641L2.56651 11.7628C1.55072 12.7786 1.55072 14.4255 2.56651 15.4413C3.5823 16.4571 5.22923 16.4571 6.24502 15.4413L9.78202 11.9043C10.7978 10.8885 10.7978 9.24152 9.78202 8.22572C9.43042 7.87412 9.43042 7.30402 9.78202 6.95243Z" fill="white"/>
</svg>
