<svg width="12" height="12" viewBox="0 0 12 12" fill="none" xmlns="http://www.w3.org/2000/svg">
<path d="M1.9342 0.923567C1.65526 0.644618 1.203 0.644618 0.924055 0.923567C0.645107 1.20251 0.645107 1.65477 0.924055 1.93372L4.99039 6.00007L0.924055 10.0664C0.645107 10.3454 0.645107 10.7976 0.924055 11.0766C1.203 11.3555 1.65526 11.3555 1.9342 11.0766L6.00056 7.01024L10.0669 11.0766C10.3459 11.3555 10.7981 11.3555 11.0771 11.0766C11.356 10.7976 11.356 10.3454 11.0771 10.0664L7.01073 6.00007L11.0771 1.93372C11.356 1.65477 11.356 1.20251 11.0771 0.923567C10.7981 0.644618 10.3459 0.644618 10.0669 0.923567L6.00056 4.9899L1.9342 0.923567Z" fill="#1B1B1B"/>
</svg>
