<svg width="24" height="24" viewBox="0 0 24 24" fill="none" xmlns="http://www.w3.org/2000/svg">
<path d="M18.2011 7.50662C21.0175 8.5176 23 10.9322 23 13.75C23 15.5873 22.1572 17.2532 20.7887 18.4681C20.9346 19.1714 21.2605 20.0489 21.7664 21.1006L21.9133 21.4008L21.942 21.4766C21.9898 21.6564 21.9065 21.851 21.7334 21.9371C21.6495 21.9788 21.5536 21.9898 21.4624 21.968C19.6684 21.5399 18.3394 20.9565 17.4761 20.2174C16.771 20.4012 16.0238 20.5 15.25 20.5C12.4642 20.5 10.0218 19.2198 8.65579 17.2981L8.75 17.3C13.9733 17.3 18.3 13.5316 18.3 8.75C18.3 8.32724 18.2662 7.9124 18.2011 7.50662ZM8.75 2C13.0302 2 16.5 5.02208 16.5 8.75C16.5 12.4779 13.0302 15.5 8.75 15.5C7.97624 15.5 7.22897 15.4012 6.52389 15.2174C5.66059 15.9565 4.33158 16.5399 2.53762 16.968C2.44644 16.9898 2.35051 16.9788 2.26658 16.9371C2.09353 16.851 2.01024 16.6564 2.05805 16.4766L2.08668 16.4008L2.2336 16.1006C2.73947 15.0489 3.06536 14.1714 3.21128 13.4681C1.84281 12.2532 1 10.5873 1 8.75C1 5.02208 4.46979 2 8.75 2Z" fill="white"/>
</svg>
