<svg width="26" height="26" viewBox="0 0 26 26" fill="none" xmlns="http://www.w3.org/2000/svg">
<path d="M10.2092 4.0625C10.5325 4.04957 10.8373 3.90877 11.0567 3.67106C11.2762 3.43336 11.3922 3.11823 11.3792 2.795C11.3663 2.47177 11.2255 2.16691 10.9878 1.94749C10.7501 1.72807 10.435 1.61207 10.1117 1.625C9.09935 1.66562 8.3161 1.79237 7.59298 2.01987C6.28469 2.4317 5.09498 3.1529 4.12471 4.12232C3.15444 5.09175 2.4322 6.28082 2.01923 7.58875C1.78848 8.32 1.6731 9.10975 1.63085 10.1108C1.61727 10.434 1.73266 10.7494 1.95162 10.9875C2.17058 11.2257 2.47518 11.3671 2.79841 11.3807C3.12165 11.3943 3.43703 11.2789 3.67519 11.0599C3.91335 10.841 4.05477 10.5364 4.06835 10.2131C4.1041 9.34375 4.19835 8.78312 4.3446 8.32162C4.63924 7.38771 5.15461 6.53856 5.84707 5.8461C6.53954 5.15363 7.38869 4.63826 8.3226 4.34362C8.79223 4.19575 9.35285 4.09337 10.2076 4.05925L10.2092 4.0625ZM15.8886 1.625C15.5654 1.61207 15.2502 1.72807 15.0125 1.94749C14.7748 2.16691 14.634 2.47177 14.6211 2.795C14.6082 3.11823 14.7242 3.43336 14.9436 3.67106C15.163 3.90877 15.4679 4.04957 15.7911 4.0625C16.6475 4.095 17.2097 4.19737 17.6761 4.34525C18.6106 4.63944 19.4604 5.15461 20.1535 5.8471C20.8465 6.53959 21.3624 7.38897 21.6574 8.32325C21.802 8.78312 21.8962 9.34212 21.9336 10.2083C21.9562 10.5248 22.1014 10.8199 22.3383 11.0311C22.5752 11.2422 22.8851 11.3526 23.2021 11.3389C23.5191 11.3251 23.8182 11.1883 24.0359 10.9574C24.2536 10.7266 24.3727 10.4199 24.3679 10.1026C24.3256 9.1065 24.2119 8.32 23.9811 7.59037C23.5687 6.28251 22.847 5.09334 21.8773 4.12365C20.9076 3.15395 19.7185 2.43231 18.4106 2.01987C17.6859 1.79237 16.901 1.66562 15.8886 1.62662V1.625ZM4.06348 15.8031C4.05055 15.4799 3.90974 15.175 3.67204 14.9556C3.43434 14.7362 3.11921 14.6202 2.79598 14.6331C2.47274 14.6461 2.16789 14.7869 1.94847 15.0246C1.72905 15.2623 1.61305 15.5774 1.62598 15.9006C1.66823 16.9081 1.79335 17.6881 2.02085 18.4096C2.43329 19.7175 3.15493 20.9067 4.12462 21.8764C5.09432 22.846 6.28349 23.5677 7.59135 23.9801C8.3161 24.2076 9.09935 24.3344 10.1117 24.3734C10.2747 24.3852 10.4384 24.3642 10.5931 24.3115C10.7477 24.2589 10.8902 24.1756 11.0121 24.0668C11.134 23.958 11.2327 23.8257 11.3024 23.6779C11.3721 23.5302 11.4114 23.3699 11.418 23.2066C11.4245 23.0434 11.3982 22.8804 11.3405 22.7276C11.2828 22.5747 11.195 22.435 11.0822 22.3167C10.9694 22.1985 10.834 22.1041 10.6841 22.0393C10.5341 21.9744 10.3726 21.9403 10.2092 21.9391C9.35448 21.905 8.79385 21.8026 8.32423 21.6548C7.39031 21.3601 6.54116 20.8447 5.8487 20.1523C5.15624 19.4598 4.64086 18.6107 4.34623 17.6768C4.19835 17.2088 4.0976 16.6498 4.06348 15.8031ZM24.376 15.9006C24.3824 15.7406 24.3572 15.5808 24.3019 15.4305C24.2465 15.2802 24.1621 15.1423 24.0535 15.0246C23.9448 14.9069 23.8141 14.8117 23.6687 14.7446C23.5232 14.6774 23.366 14.6395 23.206 14.6331C22.8827 14.6202 22.5676 14.7362 22.3299 14.9556C22.0922 15.175 21.9514 15.4799 21.9385 15.8031C21.906 16.6498 21.8036 17.2088 21.6557 17.6768C21.3611 18.6107 20.8457 19.4598 20.1533 20.1523C19.4608 20.8447 18.6116 21.3601 17.6777 21.6548C17.2081 21.8026 16.6475 21.905 15.7927 21.9391C15.6293 21.9403 15.4679 21.9744 15.3179 22.0393C15.1679 22.1041 15.0325 22.1985 14.9198 22.3167C14.807 22.435 14.7192 22.5747 14.6615 22.7276C14.6038 22.8804 14.5774 23.0434 14.584 23.2066C14.5905 23.3699 14.6298 23.5302 14.6995 23.6779C14.7693 23.8257 14.868 23.958 14.9899 24.0668C15.1117 24.1756 15.2542 24.2589 15.4089 24.3115C15.5636 24.3642 15.7273 24.3852 15.8902 24.3734C16.901 24.3344 17.6859 24.2076 18.409 23.9801C19.7174 23.5681 20.9073 22.8467 21.8776 21.877C22.8478 20.9073 23.57 19.7179 23.9827 18.4096C24.2086 17.6898 24.3354 16.9081 24.376 15.9006ZM10.5635 11.375C10.5635 10.944 10.3923 10.5307 10.0875 10.226C9.78278 9.9212 9.36945 9.75 8.93848 9.75C8.5075 9.75 8.09417 9.9212 7.78943 10.226C7.48468 10.5307 7.31348 10.944 7.31348 11.375C7.31348 11.806 7.48468 12.2193 7.78943 12.524C8.09417 12.8288 8.5075 13 8.93848 13C9.36945 13 9.78278 12.8288 10.0875 12.524C10.3923 12.2193 10.5635 11.806 10.5635 11.375ZM17.0635 9.75C17.4945 9.75 17.9078 9.9212 18.2125 10.226C18.5173 10.5307 18.6885 10.944 18.6885 11.375C18.6885 11.806 18.5173 12.2193 18.2125 12.524C17.9078 12.8288 17.4945 13 17.0635 13C16.6325 13 16.2192 12.8288 15.9144 12.524C15.6097 12.2193 15.4385 11.806 15.4385 11.375C15.4385 10.944 15.6097 10.5307 15.9144 10.226C16.2192 9.9212 16.6325 9.75 17.0635 9.75ZM15.3995 15.1466C15.2061 15.0313 14.9851 15.0313 14.5447 15.0313H11.4572C11.0169 15.0313 10.7959 15.0313 10.6025 15.1466C10.4393 15.2553 10.3147 15.4129 10.2466 15.5968C10.1784 15.8129 10.219 15.9819 10.3002 16.3215C10.3181 16.4035 10.3426 16.4839 10.3734 16.562C10.669 17.2469 11.2215 17.7883 11.9122 18.07C12.4318 18.2803 13.0013 18.3352 13.5514 18.2279C14.1016 18.1205 14.6087 17.8557 15.0111 17.4655C15.276 17.2055 15.4856 16.9 15.6286 16.562C15.6594 16.4839 15.6838 16.4035 15.7017 16.3215C15.783 15.9819 15.8236 15.8129 15.7554 15.5968C15.6868 15.4126 15.5633 15.255 15.3995 15.1466Z" fill="white"/>
</svg>
