<svg width="13" height="13" viewBox="0 0 13 13" fill="none" xmlns="http://www.w3.org/2000/svg">
<path d="M5.31151 7.43956C5.58484 7.69956 5.58484 8.12622 5.31151 8.38622C5.05151 8.64622 4.62484 8.64622 4.36484 8.38622C3.06484 7.08622 3.06484 4.97289 4.36484 3.67289L6.72484 1.31289C8.02484 0.0128906 10.1382 0.0128906 11.4382 1.31289C12.7382 2.61289 12.7382 4.72622 11.4382 6.02622L10.4448 7.01956C10.4515 6.47289 10.3648 5.92622 10.1782 5.40622L10.4915 5.08622C11.2782 4.30622 11.2782 3.03956 10.4915 2.25956C9.71151 1.47289 8.44484 1.47289 7.66484 2.25956L5.31151 4.61289C4.52484 5.39289 4.52484 6.65956 5.31151 7.43956ZM7.19151 4.61289C7.45151 4.35289 7.87818 4.35289 8.13818 4.61289C9.43818 5.91289 9.43818 8.02622 8.13818 9.32622L5.77818 11.6862C4.47818 12.9862 2.36484 12.9862 1.06484 11.6862C-0.235156 10.3862 -0.235156 8.27289 1.06484 6.97289L2.05818 5.97956C2.05151 6.52622 2.13818 7.07289 2.32484 7.59956L2.01151 7.91289C1.22484 8.69289 1.22484 9.95956 2.01151 10.7396C2.79151 11.5262 4.05818 11.5262 4.83818 10.7396L7.19151 8.38622C7.97818 7.60622 7.97818 6.33956 7.19151 5.55956C6.91818 5.29956 6.91818 4.87289 7.19151 4.61289Z" fill="#2688EB"/>
</svg>
