<svg width="12" height="12" viewBox="0 0 12 12" fill="none" xmlns="http://www.w3.org/2000/svg">
<g clip-path="url(#clip0_2980_70270)">
<path d="M7.28516 0.857422C7.84498 0.857422 8.32123 1.21521 8.49773 1.7146L4.33992 1.71456C3.57576 1.71456 3.29865 1.79413 3.01929 1.94354C2.73992 2.09294 2.52068 2.31219 2.37127 2.59155C2.22186 2.87092 2.1423 3.14802 2.1423 3.91218L2.14234 8.49856C1.64295 8.32207 1.28516 7.84582 1.28516 7.28599V3.42885C1.28516 2.00869 2.43642 0.857422 3.85658 0.857422H7.28516ZM8.99944 2.57171C9.70952 2.57171 10.2852 3.14734 10.2852 3.85742V9.42885C10.2852 10.1389 9.70952 10.7146 8.99944 10.7146H4.28516C3.57508 10.7146 2.99944 10.1389 2.99944 9.42885V3.85742C2.99944 3.14734 3.57508 2.57171 4.28516 2.57171H8.99944ZM8.99944 3.42885H4.28516C4.04846 3.42885 3.85658 3.62073 3.85658 3.85742V9.42885C3.85658 9.66554 4.04846 9.85742 4.28516 9.85742H8.99944C9.23614 9.85742 9.42801 9.66554 9.42801 9.42885V3.85742C9.42801 3.62073 9.23614 3.42885 8.99944 3.42885Z" fill="#2688EB"/>
</g>
<defs>
<clipPath id="clip0_2980_70270">
<rect width="12" height="12" fill="white"/>
</clipPath>
</defs>
</svg>
