<svg width="24" height="24" viewBox="0 0 24 24" fill="none" xmlns="http://www.w3.org/2000/svg">
<path d="M22 5C22 4.20435 21.6839 3.44129 21.1213 2.87868C20.5587 2.31607 19.7956 2 19 2C18.2044 2 17.4413 2.31607 16.8787 2.87868C16.3161 3.44129 16 4.20435 16 5C16 5.79565 16.3161 6.55871 16.8787 7.12132C17.4413 7.68393 18.2044 8 19 8C19.7956 8 20.5587 7.68393 21.1213 7.12132C21.6839 6.55871 22 5.79565 22 5ZM18.5035 3.4415C18.5186 3.31495 18.5814 3.19893 18.6791 3.11713C18.7768 3.03534 18.9021 2.99395 19.0293 3.00141C19.1565 3.00888 19.2761 3.06465 19.3636 3.15732C19.4511 3.24998 19.4999 3.37256 19.5 3.5V4.5H20.5L20.5585 4.5035C20.685 4.51855 20.8011 4.58136 20.8829 4.67908C20.9647 4.77681 21.0061 4.90208 20.9986 5.0293C20.9911 5.15652 20.9354 5.27609 20.8427 5.36358C20.75 5.45106 20.6274 5.49986 20.5 5.5H19.5V6.5L19.4965 6.5585C19.4814 6.68505 19.4186 6.80107 19.3209 6.88287C19.2232 6.96466 19.0979 7.00605 18.9707 6.99859C18.8435 6.99112 18.7239 6.93535 18.6364 6.84268C18.5489 6.75002 18.5001 6.62744 18.5 6.5V5.5H17.5L17.4415 5.4965C17.315 5.48145 17.1989 5.41864 17.1171 5.32092C17.0353 5.22319 16.9939 5.09792 17.0014 4.9707C17.0089 4.84348 17.0646 4.72391 17.1573 4.63642C17.25 4.54894 17.3726 4.50014 17.5 4.5H18.5V3.5L18.5035 3.4415Z" fill="white"/>
<path fill-rule="evenodd" clip-rule="evenodd" d="M15.2492 3.607C14.2226 3.20956 13.1221 3 12 3C9.61305 3 7.32387 3.94821 5.63604 5.63604C3.94821 7.32387 3 9.61305 3 12C3 14.3869 3.94821 16.6761 5.63604 18.364C7.32387 20.0518 9.61305 21 12 21C14.3869 21 16.6761 20.0518 18.364 18.364C20.0518 16.6761 21 14.3869 21 12C21 10.8779 20.7904 9.77736 20.393 8.75077C19.9592 8.91193 19.4899 9 19 9C16.7909 9 15 7.20914 15 5C15 4.51011 15.0881 4.04079 15.2492 3.607ZM8.09844 9.37344C8.33755 9.13433 8.66185 9 9 9C9.33815 9 9.66245 9.13433 9.90156 9.37344C10.1407 9.61255 10.275 9.93685 10.275 10.275C10.275 10.6132 10.1407 10.9375 9.90156 11.1766C9.66245 11.4157 9.33815 11.55 9 11.55C8.66185 11.55 8.33755 11.4157 8.09844 11.1766C7.85933 10.9375 7.725 10.6132 7.725 10.275C7.725 9.93685 7.85933 9.61255 8.09844 9.37344ZM9.36806 13.9953C9.47713 14.0482 9.57438 14.1226 9.654 14.214C9.95513 14.534 10.3187 14.7888 10.7222 14.9627C11.1257 15.1366 11.5606 15.2258 12 15.225C12.4394 15.2258 12.8743 15.1366 13.2778 14.9627C13.6813 14.7888 14.0449 14.534 14.346 14.214C14.4264 14.1252 14.5237 14.0534 14.6323 14.0027C14.7408 13.952 14.8584 13.9235 14.9781 13.9189C15.0978 13.9142 15.2172 13.9335 15.3293 13.9756C15.4415 14.0177 15.5441 14.0818 15.6312 14.1641C15.7182 14.2463 15.788 14.3452 15.8364 14.4547C15.8848 14.5643 15.9108 14.6825 15.9129 14.8022C15.915 14.922 15.8932 15.041 15.8488 15.1522C15.8043 15.2635 15.7381 15.3647 15.654 15.45C14.739 16.4175 13.44 17.025 12 17.025C11.3156 17.0256 10.6383 16.886 10.0099 16.6149C9.38143 16.3437 8.81518 15.9468 8.346 15.4485C8.25936 15.3637 8.19073 15.2623 8.14423 15.1504C8.09774 15.0385 8.07433 14.9183 8.07542 14.7971C8.07651 14.6759 8.10206 14.5562 8.15056 14.4451C8.19906 14.334 8.26949 14.2338 8.35764 14.1506C8.44579 14.0675 8.54984 14.0029 8.66354 13.9609C8.77724 13.9189 8.89825 13.9003 9.01931 13.9062C9.14038 13.9122 9.259 13.9425 9.36806 13.9953ZM14.0984 9.37344C13.8593 9.61255 13.725 9.93685 13.725 10.275C13.725 10.6132 13.8593 10.9375 14.0984 11.1766C14.3375 11.4157 14.6618 11.55 15 11.55C15.3382 11.55 15.6625 11.4157 15.9016 11.1766C16.1407 10.9375 16.275 10.6132 16.275 10.275C16.275 9.93685 16.1407 9.61255 15.9016 9.37344C15.6625 9.13433 15.3382 9 15 9C14.6618 9 14.3375 9.13433 14.0984 9.37344Z" fill="white"/>
</svg>
