<svg width="18" height="18" viewBox="0 0 18 18" fill="none" xmlns="http://www.w3.org/2000/svg">
<path d="M8.99316 17.5898C13.6997 17.5898 17.5845 13.7051 17.5845 9.00684C17.5845 4.30859 13.6914 0.423828 8.98486 0.423828C4.28662 0.423828 0.410156 4.30859 0.410156 9.00684C0.410156 13.7051 4.29492 17.5898 8.99316 17.5898ZM8.99316 15.8799C5.18311 15.8799 2.13672 12.8169 2.13672 9.00684C2.13672 5.19678 5.18311 2.14209 8.98486 2.14209C12.7949 2.14209 15.8579 5.19678 15.8662 9.00684C15.8745 12.8169 12.8032 15.8799 8.99316 15.8799ZM9.00146 12.2607C10.8027 12.2607 12.2554 10.8081 12.2554 8.99854C12.2554 7.20557 10.8027 5.74463 9.00146 5.74463C7.19189 5.74463 5.73926 7.20557 5.73926 8.99854C5.73926 10.8081 7.19189 12.2607 9.00146 12.2607Z" fill="#E64646"/>
</svg>
