<svg width="17" height="17" viewBox="0 0 17 17" fill="none" xmlns="http://www.w3.org/2000/svg">
<path fill-rule="evenodd" clip-rule="evenodd" d="M2.55 1.7C2.32457 1.7 2.10836 1.78955 1.94896 1.94896C1.78955 2.10837 1.7 2.32457 1.7 2.55V14.45C1.7 14.6754 1.78955 14.8916 1.94896 15.051C2.10837 15.2104 2.32457 15.3 2.55 15.3H5.95C6.41944 15.3 6.8 15.6806 6.8 16.15C6.8 16.6194 6.41944 17 5.95 17H2.55C1.8737 17 1.2251 16.7313 0.746878 16.2531C0.26866 15.7749 0 15.1263 0 14.45V2.55C0 1.8737 0.26866 1.2251 0.746878 0.746878C1.2251 0.26866 1.8737 0 2.55 0H5.95C6.41944 0 6.8 0.380558 6.8 0.85C6.8 1.31944 6.41944 1.7 5.95 1.7H2.55ZM11.299 3.64897C11.6309 3.31702 12.1691 3.31702 12.5011 3.64897L16.7485 7.89639C16.7575 7.90529 16.7662 7.91439 16.7748 7.92368C16.8415 7.9959 16.8934 8.07687 16.9305 8.16271C16.9752 8.26612 17 8.38017 17 8.50001C17 8.61985 16.9752 8.73389 16.9305 8.8373C16.8934 8.92314 16.8415 9.00411 16.7748 9.07633C16.7662 9.08567 16.7574 9.09481 16.7483 9.10375L12.5011 13.351C12.1691 13.683 11.6309 13.683 11.299 13.351C10.967 13.0191 10.967 12.4809 11.299 12.149L14.0979 9.35001H5.95002C5.48058 9.35001 5.10002 8.96945 5.10002 8.50001C5.10002 8.03056 5.48058 7.65001 5.95002 7.65001H14.0979L11.299 4.85105C10.967 4.5191 10.967 3.98091 11.299 3.64897Z" fill="#1B1B1B"/>
</svg>
