<svg width="24" height="24" viewBox="0 0 24 24" fill="none" xmlns="http://www.w3.org/2000/svg">
<path fill-rule="evenodd" clip-rule="evenodd" d="M14 4.9C14 4.66131 14.0948 4.43239 14.2636 4.2636C14.4324 4.09482 14.6613 4 14.9 4H19.1C19.3387 4 19.5676 4.09482 19.7364 4.2636C19.9052 4.43239 20 4.66131 20 4.9V9.1C20 9.3387 19.9052 9.56761 19.7364 9.7364C19.5676 9.90518 19.3387 10 19.1 10C18.8613 10 18.6324 9.90518 18.4636 9.7364C18.2948 9.56761 18.2 9.3387 18.2 9.1V7.073L14.536 10.736C14.4536 10.8244 14.3542 10.8953 14.2438 10.9445C14.1334 10.9937 14.0143 11.0202 13.8934 11.0223C13.7726 11.0244 13.6525 11.0022 13.5405 10.9569C13.4284 10.9117 13.3266 10.8443 13.2412 10.7588C13.1557 10.6734 13.0883 10.5716 13.0431 10.4595C12.9978 10.3475 12.9756 10.2274 12.9777 10.1066C12.9798 9.98573 13.0063 9.86655 13.0555 9.75615C13.1047 9.64575 13.1756 9.54639 13.264 9.464L16.927 5.8H14.9C14.7818 5.8 14.6648 5.77672 14.5556 5.73149C14.4464 5.68626 14.3472 5.61997 14.2636 5.5364C14.18 5.45282 14.1137 5.35361 14.0685 5.24442C14.0233 5.13522 14 5.01819 14 4.9ZM10.736 13.264C10.9045 13.4328 10.9992 13.6615 10.9992 13.9C10.9992 14.1385 10.9045 14.3672 10.736 14.536L7.073 18.2H9.098C9.33669 18.2 9.56561 18.2948 9.7344 18.4636C9.90318 18.6324 9.998 18.8613 9.998 19.1C9.998 19.3387 9.90318 19.5676 9.7344 19.7364C9.56561 19.9052 9.33669 20 9.098 20H4.9C4.66131 20 4.43239 19.9052 4.2636 19.7364C4.09482 19.5676 4 19.3387 4 19.1V14.9C4 14.6613 4.09482 14.4324 4.2636 14.2636C4.43239 14.0948 4.66131 14 4.9 14C5.1387 14 5.36761 14.0948 5.5364 14.2636C5.70518 14.4324 5.8 14.6613 5.8 14.9V16.927L9.464 13.264C9.63275 13.0955 9.8615 13.0008 10.1 13.0008C10.3385 13.0008 10.5672 13.0955 10.736 13.264Z" fill="white"/>
</svg>
