<svg width="61" height="64" viewBox="0 0 61 64" fill="none" xmlns="http://www.w3.org/2000/svg">
<path d="M59.141 27.29C57.8387 25.9878 55.7292 25.9878 54.4269 27.29L44.7914 36.9255L43.7201 35.6398L59.7302 19.6297C61.3577 18.0022 61.3577 15.3647 59.7302 13.7371C58.1027 12.1096 55.4652 12.1096 53.8377 13.7371L38.3603 29.2145L37.289 27.9288L53.8377 11.3801C55.4652 9.75259 55.4652 7.11509 53.8377 5.48756C52.2101 3.86004 49.5726 3.86004 47.9451 5.48756L31.928 21.5047L30.8567 20.219L43.0625 8.01311C44.604 6.47162 44.8986 3.95903 43.5198 2.2714C41.9323 0.330395 39.0662 0.224329 37.3385 1.95203C37.0592 2.23133 0.25311 39.0374 0.25311 39.0374C0.442851 42.2913 1.80285 45.3766 4.12098 47.6948L16.7146 60.2883C20.6201 64.1939 26.9511 64.1939 30.8567 60.2883L59.141 32.0041C60.4432 30.7018 60.4432 28.5923 59.141 27.29Z" fill="url(#paint0_linear_2818_59)"/>
<defs>
<linearGradient id="paint0_linear_2818_59" x1="30.7282" y1="21.1983" x2="29.6346" y2="79.1245" gradientUnits="userSpaceOnUse">
<stop stop-color="#FFC430"/>
<stop offset="0.41" stop-color="#FEC130"/>
<stop offset="0.72" stop-color="#FCB730"/>
<stop offset="0.998" stop-color="#F7A72F"/>
<stop offset="1" stop-color="#F7A72F"/>
</linearGradient>
</defs>
</svg>
