<svg width="18" height="22" viewBox="0 0 18 22" fill="none" xmlns="http://www.w3.org/2000/svg">
<path fill-rule="evenodd" clip-rule="evenodd" d="M3.85742 5.85721C3.85742 3.01689 6.15996 0.714355 9.00028 0.714355C11.8406 0.714355 14.1431 3.01689 14.1431 5.85721V9.71436C14.1431 12.5547 11.8406 14.8572 9.00028 14.8572C6.15996 14.8572 3.85742 12.5547 3.85742 9.71436V5.85721ZM9.00028 2.00007C6.87006 2.00007 5.14314 3.72696 5.14314 5.85721V9.71436C5.14314 11.8446 6.87006 13.5715 9.00028 13.5715C11.1305 13.5715 12.8574 11.8446 12.8574 9.71436V5.85721C12.8574 3.72696 11.1305 2.00007 9.00028 2.00007Z" fill="white"/>
<path d="M2.09148 12.6758C1.95185 12.3494 1.57402 12.198 1.24759 12.3376C0.92117 12.4772 0.769755 12.8551 0.909401 13.1815C2.16755 16.1225 5.00195 18.236 8.35758 18.4771V20.6429C8.35758 20.998 8.64541 21.2858 9.00044 21.2858C9.35546 21.2858 9.64329 20.998 9.64329 20.6429V18.4771C12.999 18.236 15.8333 16.1225 17.0915 13.1815C17.2312 12.8551 17.0797 12.4772 16.7533 12.3376C16.4269 12.198 16.0491 12.3494 15.9094 12.6758C14.7685 15.3428 12.1053 17.2144 9.00044 17.2144C5.89556 17.2144 3.23242 15.3428 2.09148 12.6758Z" fill="white"/>
</svg>
