<svg width="12" height="12" viewBox="0 0 12 12" fill="none" xmlns="http://www.w3.org/2000/svg">
<path d="M2.05266 1.84635C2.01147 1.80214 1.96178 1.76668 1.90659 1.74208C1.85139 1.71749 1.7918 1.70426 1.73138 1.7032C1.67095 1.70213 1.61094 1.71324 1.5549 1.73588C1.49887 1.75851 1.44797 1.7922 1.40524 1.83493C1.36251 1.87766 1.32882 1.92856 1.30619 1.98459C1.28356 2.04062 1.27244 2.10064 1.27351 2.16106C1.27457 2.22149 1.2878 2.28107 1.31239 2.33627C1.33699 2.39147 1.37245 2.44115 1.41666 2.48235L9.51666 10.5823C9.60173 10.6634 9.71511 10.7079 9.83258 10.7065C9.95006 10.7051 10.0623 10.6577 10.1454 10.5746C10.2284 10.4915 10.2757 10.3792 10.277 10.2618C10.2784 10.1443 10.2338 10.0309 10.1527 9.94592L2.05266 1.84635Z" fill="white"/>
<path d="M2.85532 6.33733C2.83134 6.22623 2.7642 6.1292 2.66868 6.06759C2.57315 6.00599 2.45707 5.98485 2.34596 6.00883C2.23486 6.03282 2.13783 6.09995 2.07622 6.19548C2.01462 6.291 1.99348 6.40708 2.01746 6.51819C2.19785 7.34933 2.64066 8.10046 3.28055 8.66071C3.92044 9.22095 4.72349 9.56064 5.57118 9.62962V10.9286C5.57118 11.0423 5.61633 11.1513 5.6967 11.2317C5.77708 11.312 5.88608 11.3572 5.99975 11.3572C6.11341 11.3572 6.22242 11.312 6.30279 11.2317C6.38317 11.1513 6.42832 11.0423 6.42832 10.9286V9.63005C7.31532 9.55834 8.15231 9.18997 8.80432 8.58433L8.19789 7.97748C7.62593 8.498 6.88025 8.78625 6.10689 8.78576H5.89261C5.18289 8.7857 4.49457 8.54278 3.94203 8.09736C3.38949 7.65195 3.00601 7.03086 2.85532 6.33733ZM8.92861 6.98276C8.84589 7.16105 8.86946 7.37619 9.00875 7.51548L9.02503 7.53176C9.21575 7.72248 9.53375 7.69205 9.65418 7.45119C9.79989 7.15976 9.91089 6.84776 9.98203 6.51862C10.006 6.40751 9.98488 6.29143 9.92327 6.19591C9.86167 6.10038 9.76464 6.03324 9.65353 6.00926C9.54243 5.98528 9.42634 6.00641 9.33082 6.06802C9.2353 6.12963 9.16816 6.22666 9.14418 6.33776C9.09626 6.56004 9.02397 6.77634 8.92861 6.98276ZM8.12246 5.86633C8.08175 6.16248 7.72561 6.23233 7.51389 6.02062L4.10675 2.61348C3.99832 2.50505 3.95289 2.34519 4.01032 2.2029C4.19613 1.74143 4.53666 1.35894 4.97354 1.12099C5.41042 0.883038 5.91647 0.804444 6.40494 0.898674C6.89342 0.992904 7.33392 1.25409 7.65094 1.63747C7.96797 2.02086 8.14179 2.50257 8.14261 3.00005V5.57148C8.14261 5.67133 8.13575 5.7699 8.12246 5.86633Z" fill="white"/>
<path d="M3.85547 3.63647L7.40618 7.18719C7.09608 7.45743 6.71476 7.63272 6.30774 7.69211C5.90071 7.7515 5.4852 7.6925 5.11081 7.52213C4.73641 7.35177 4.41897 7.07725 4.19637 6.73135C3.97377 6.38546 3.85542 5.98281 3.85547 5.57147V3.63647Z" fill="white"/>
</svg>
