<svg width="10" height="12" viewBox="0 0 10 12" fill="none" xmlns="http://www.w3.org/2000/svg">
<path d="M5.00288 0.857178C4.14897 0.857178 3.39233 1.27372 2.92516 1.9133C2.82046 2.05665 2.85179 2.25775 2.99515 2.36245C3.13851 2.46715 3.33959 2.43582 3.44429 2.29246C3.79561 1.81148 4.36287 1.50003 5.00288 1.50003C6.06801 1.50003 6.93145 2.36348 6.93145 3.42861V5.35718C6.93145 5.56859 6.89755 5.77143 6.83515 5.96095C6.77963 6.12957 6.8713 6.31126 7.03992 6.36679C7.20852 6.42231 7.39021 6.33064 7.44576 6.16203C7.52926 5.90843 7.57431 5.63774 7.57431 5.35718V3.42861C7.57431 2.00844 6.42304 0.857178 5.00288 0.857178Z" fill="#E64646"/>
<path fill-rule="evenodd" clip-rule="evenodd" d="M2.42977 3.7761L1.02391 2.37026C0.898383 2.24473 0.898383 2.0412 1.02391 1.91568C1.14943 1.79015 1.35296 1.79015 1.47849 1.91568L8.97849 9.41567C9.10399 9.5412 9.10399 9.74473 8.97849 9.87026C8.85296 9.99576 8.64943 9.99576 8.5239 9.87026L7.57601 8.92234C6.93371 9.38453 6.16044 9.67836 5.32262 9.7386V10.8215C5.32262 10.999 5.17871 11.143 5.00119 11.143C4.82368 11.143 4.67977 10.999 4.67977 10.8215V9.7386C3.00195 9.61806 1.58475 8.56129 0.955677 7.09082C0.885854 6.9276 0.961561 6.73868 1.12477 6.66887C1.28799 6.59905 1.4769 6.67476 1.54672 6.83796C2.11719 8.17144 3.44876 9.10725 5.00119 9.10725C5.78546 9.10725 6.51274 8.86868 7.11439 8.46073L6.2559 7.60225C5.88454 7.81018 5.45629 7.92868 5.00119 7.92868C3.58104 7.92868 2.42977 6.77741 2.42977 5.35725V3.7761ZM3.07262 4.41896V5.35725C3.07262 6.42238 3.93609 7.28582 5.00119 7.28582C5.2776 7.28582 5.53993 7.22785 5.77712 7.12345L3.07262 4.41896Z" fill="#E64646"/>
<path d="M9.04676 7.09076C9.1166 6.92754 9.04089 6.73862 8.87767 6.66881C8.71447 6.59899 8.52556 6.6747 8.45572 6.8379C8.39193 6.98704 8.31858 7.13126 8.23642 7.26977C8.14586 7.42245 8.19624 7.61964 8.34892 7.71019C8.50162 7.80075 8.69881 7.75037 8.78934 7.59769C8.88573 7.4352 8.97183 7.26594 9.04676 7.09076Z" fill="#E64646"/>
</svg>
