<svg width="10" height="12" viewBox="0 0 10 12" fill="none" xmlns="http://www.w3.org/2000/svg">
<path fill-rule="evenodd" clip-rule="evenodd" d="M2.42969 3.42861C2.42969 2.00844 3.58096 0.857178 5.00112 0.857178C6.42127 0.857178 7.57254 2.00844 7.57254 3.42861V5.35718C7.57254 6.77733 6.42127 7.92861 5.00112 7.92861C3.58096 7.92861 2.42969 6.77733 2.42969 5.35718V3.42861ZM5.00112 1.50003C3.93601 1.50003 3.07254 2.36348 3.07254 3.42861V5.35718C3.07254 6.42231 3.93601 7.28575 5.00112 7.28575C6.06624 7.28575 6.92969 6.42231 6.92969 5.35718V3.42861C6.92969 2.36348 6.06624 1.50003 5.00112 1.50003Z" fill="#2688EB"/>
<path d="M1.54672 6.8379C1.4769 6.6747 1.28799 6.59899 1.12477 6.66881C0.961561 6.73862 0.885854 6.92754 0.955677 7.09076C1.58475 8.56123 3.00195 9.618 4.67977 9.73854V10.8215C4.67977 10.999 4.82368 11.1429 5.00119 11.1429C5.17871 11.1429 5.32262 10.999 5.32262 10.8215V9.73854C7.00046 9.618 8.41764 8.56123 9.04672 7.09076C9.11655 6.92754 9.04084 6.73862 8.87762 6.66881C8.71442 6.59899 8.52551 6.6747 8.45567 6.8379C7.8852 8.17138 6.55363 9.10719 5.00119 9.10719C3.44876 9.10719 2.11719 8.17138 1.54672 6.8379Z" fill="#2688EB"/>
</svg>
