<svg width="12" height="12" viewBox="0 0 12 12" fill="none" xmlns="http://www.w3.org/2000/svg">
<path d="M4.12235 3.375C4.12235 2.34 4.96235 1.5 5.99885 1.5C6.24518 1.4999 6.48911 1.54832 6.71673 1.6425C6.94434 1.73667 7.15118 1.87475 7.32543 2.04886C7.49968 2.22297 7.63793 2.4297 7.73228 2.65724C7.82664 2.88478 7.87525 3.12867 7.87535 3.375V5.625C7.87535 6.66 7.03535 7.5 5.99885 7.5C5.75253 7.5001 5.50859 7.45168 5.28098 7.3575C5.05336 7.26333 4.84653 7.12525 4.67228 6.95114C4.49803 6.77703 4.35978 6.5703 4.26542 6.34276C4.17107 6.11522 4.12245 5.87133 4.12235 5.625V3.375ZM2.39435 5.82525C2.4666 5.80972 2.54119 5.80857 2.61388 5.82187C2.68657 5.83518 2.75593 5.86268 2.81798 5.90279C2.88004 5.94291 2.93359 5.99486 2.97556 6.05568C3.01753 6.1165 3.04711 6.185 3.0626 6.25725C3.20735 6.92848 3.57771 7.52985 4.11199 7.96119C4.64626 8.39253 5.31219 8.62779 5.99885 8.62779C6.68551 8.62779 7.35144 8.39253 7.88572 7.96119C8.41999 7.52985 8.79035 6.92848 8.9351 6.25725C8.96633 6.11125 9.05428 5.98363 9.1796 5.90248C9.30492 5.82132 9.45735 5.79327 9.60335 5.8245C9.74935 5.85573 9.87697 5.94368 9.95813 6.069C10.0393 6.19432 10.0673 6.34675 10.0361 6.49275C9.85699 7.32078 9.42763 8.07372 8.80621 8.64953C8.18479 9.22534 7.40136 9.59616 6.5621 9.71175V10.6875C6.5621 10.8369 6.50276 10.9801 6.39713 11.0858C6.2915 11.1914 6.14824 11.2508 5.99885 11.2508C5.84947 11.2508 5.7062 11.1914 5.60057 11.0858C5.49494 10.9801 5.4356 10.8369 5.4356 10.6875V9.7125C4.59624 9.59686 3.81274 9.22593 3.19131 8.64998C2.56988 8.07403 2.14058 7.32092 1.9616 6.49275C1.94619 6.42051 1.94515 6.34593 1.95856 6.27329C1.97196 6.20065 1.99955 6.13136 2.03973 6.06937C2.07992 6.00739 2.13192 5.95393 2.19276 5.91204C2.25361 5.87015 2.32211 5.84066 2.39435 5.82525Z" fill="white"/>
</svg>
