<svg width="4" height="12" viewBox="0 0 4 12" fill="none" xmlns="http://www.w3.org/2000/svg">
<path d="M2.0013 2.66875C2.74973 2.66875 3.33464 2.08125 3.33464 1.33125C3.33464 0.59375 2.73715 3.2165e-08 2.0013 0C1.27174 -3.18901e-08 0.667969 0.59375 0.667969 1.33125C0.667969 2.0625 1.27174 2.66875 2.0013 2.66875ZM2.0013 7.31875C2.74973 7.31875 3.33464 6.7375 3.33464 6C3.33464 5.26875 2.73715 4.675 2.0013 4.675C1.27174 4.675 0.667969 5.26875 0.667969 6C0.667969 6.725 1.27174 7.31875 2.0013 7.31875ZM2.0013 12C2.74973 12 3.33464 11.4125 3.33464 10.6688C3.33464 9.925 2.73715 9.33125 2.0013 9.33125C1.27174 9.33125 0.667969 9.925 0.667969 10.6688C0.667969 11.3938 1.27174 12 2.0013 12Z" fill="#2688EB"/>
</svg>
