<svg width="22" height="15" viewBox="0 0 22 15" fill="none" xmlns="http://www.w3.org/2000/svg">
<path d="M11.0006 8.4285C14.0325 8.4285 16.572 9.65152 16.572 12.2856C16.572 13.599 15.7771 14.4285 14.697 14.4285H7.30415C6.18313 14.4285 5.42915 13.8166 5.42915 12.4999C5.42915 9.70263 7.93549 8.4285 11.0006 8.4285ZM4.81071 8.42892C5.13797 8.44098 5.40852 8.70023 5.42803 9.03382C5.44877 9.38825 5.17825 9.69239 4.82381 9.71312C3.15982 9.81046 2.00056 10.5647 2.00056 11.8571C2.00056 12.1785 2.14342 12.2856 2.42913 12.2856H3.50056L3.56247 12.2886C3.88846 12.3197 4.14341 12.5943 4.14341 12.9285C4.14341 13.2835 3.8556 13.5714 3.50056 13.5714H2.42913L2.34513 13.5697C1.45366 13.5352 0.714844 12.948 0.714844 11.8571C0.714844 9.71753 2.49139 8.56165 4.74873 8.4296L4.81071 8.42892ZM17.1904 8.42892L17.2524 8.4296C19.5097 8.56165 21.2863 9.71753 21.2863 11.8571C21.2863 12.948 20.5475 13.5352 19.656 13.5697L19.572 13.5714H18.5006C18.1455 13.5714 17.8577 13.2835 17.8577 12.9285C17.8577 12.5943 18.1127 12.3197 18.4387 12.2886L18.5006 12.2856H19.572C19.8577 12.2856 20.0006 12.1785 20.0006 11.8571C20.0006 10.5647 18.8413 9.81046 17.1773 9.71312C16.8229 9.69239 16.5524 9.38825 16.5731 9.03382C16.5926 8.70023 16.8632 8.44098 17.1904 8.42892ZM11.0006 9.71422C8.55345 9.71422 6.71486 10.6489 6.71486 12.4999C6.71486 12.9934 6.82001 13.1217 7.19083 13.1402L7.30415 13.1428H14.697C15.0545 13.1428 15.2863 12.9009 15.2863 12.2856C15.2863 10.6176 13.4106 9.71422 11.0006 9.71422ZM5.85755 1.14279C5.94837 1.14279 6.03878 1.14684 6.12859 1.15491C6.48221 1.18666 6.74313 1.49907 6.71138 1.85268C6.67962 2.2063 6.36722 2.46722 6.0136 2.43547C5.96201 2.43084 5.90997 2.4285 5.85755 2.4285C4.91078 2.4285 4.14327 3.19601 4.14327 4.14279C4.14327 5.08956 4.91078 5.85707 5.85755 5.85707C5.96053 5.85707 6.06205 5.84807 6.16146 5.83033C6.21465 5.82084 6.26721 5.80885 6.319 5.79442L6.38694 5.77823C6.70907 5.71926 7.02926 5.9139 7.12043 6.23538C7.21729 6.57695 7.01892 6.93237 6.67734 7.02923L6.52655 7.06777L6.38731 7.09605C6.21344 7.12708 6.03634 7.14279 5.85755 7.14279C4.2007 7.14279 2.85756 5.79964 2.85756 4.14279C2.85756 2.48593 4.2007 1.14279 5.85755 1.14279ZM16.145 1.14279C17.8018 1.14279 19.145 2.48593 19.145 4.14279C19.145 5.79964 17.8018 7.14279 16.145 7.14279C15.9662 7.14279 15.7891 7.12708 15.6152 7.09605L15.476 7.06777L15.3252 7.02923C14.9836 6.93237 14.7852 6.57695 14.8821 6.23538C14.9733 5.9139 15.2935 5.71926 15.6156 5.77823L15.6835 5.79442C15.7353 5.80885 15.7879 5.82084 15.8411 5.83033C15.9405 5.84807 16.042 5.85707 16.145 5.85707C17.0918 5.85707 17.8593 5.08956 17.8593 4.14279C17.8593 3.19601 17.0918 2.4285 16.145 2.4285C16.0926 2.4285 16.0405 2.43084 15.9889 2.43547C15.6353 2.46722 15.3229 2.2063 15.2912 1.85268C15.2594 1.49907 15.5203 1.18666 15.8739 1.15491C15.9638 1.14684 16.0542 1.14279 16.145 1.14279ZM11.0006 0.285645C12.8941 0.285645 14.4291 1.82067 14.4291 3.71422C14.4291 5.60776 12.8941 7.14279 11.0006 7.14279C9.10703 7.14279 7.57201 5.60776 7.57201 3.71422C7.57201 1.82067 9.10703 0.285645 11.0006 0.285645ZM11.0006 1.57136C9.81711 1.57136 8.85772 2.53075 8.85772 3.71422C8.85772 4.89768 9.81711 5.85707 11.0006 5.85707C12.184 5.85707 13.1434 4.89768 13.1434 3.71422C13.1434 2.53075 12.184 1.57136 11.0006 1.57136Z" fill="white"/>
</svg>
