<svg width="16" height="16" viewBox="0 0 16 16" fill="none" xmlns="http://www.w3.org/2000/svg">
<path d="M7.875 0C6.31747 0 4.79492 0.461861 3.49989 1.32718C2.20485 2.19249 1.19549 3.4224 0.599452 4.86137C0.00341217 6.30033 -0.152539 7.88373 0.151319 9.41133C0.455178 10.9389 1.2052 12.3421 2.30654 13.4435C3.40788 14.5448 4.81107 15.2948 6.33867 15.5987C7.86627 15.9025 9.44967 15.7466 10.8886 15.1505C12.3276 14.5545 13.5575 13.5451 14.4228 12.2501C15.2881 10.9551 15.75 9.43253 15.75 7.875C15.75 5.78642 14.9203 3.78338 13.4435 2.30653C11.9666 0.829685 9.96358 0 7.875 0ZM6.75 10.6875C6.75 10.9859 6.63148 11.272 6.4205 11.483C6.20952 11.694 5.92337 11.8125 5.625 11.8125C5.32663 11.8125 5.04049 11.694 4.82951 11.483C4.61853 11.272 4.5 10.9859 4.5 10.6875V5.0625C4.5 4.76413 4.61853 4.47798 4.82951 4.267C5.04049 4.05603 5.32663 3.9375 5.625 3.9375C5.92337 3.9375 6.20952 4.05603 6.4205 4.267C6.63148 4.47798 6.75 4.76413 6.75 5.0625V10.6875ZM11.25 10.6875C11.25 10.9859 11.1315 11.272 10.9205 11.483C10.7095 11.694 10.4234 11.8125 10.125 11.8125C9.82663 11.8125 9.54048 11.694 9.32951 11.483C9.11853 11.272 9 10.9859 9 10.6875V5.0625C9 4.76413 9.11853 4.47798 9.32951 4.267C9.54048 4.05603 9.82663 3.9375 10.125 3.9375C10.4234 3.9375 10.7095 4.05603 10.9205 4.267C11.1315 4.47798 11.25 4.76413 11.25 5.0625V10.6875Z" fill="white"/>
</svg>
