<svg width="18" height="18" viewBox="0 0 18 18" fill="none" xmlns="http://www.w3.org/2000/svg">
<path d="M9.21119 5.74713C8.83031 5.6818 8.4386 5.75337 8.10543 5.94917C7.77227 6.14498 7.51915 6.45238 7.39091 6.81692C7.24096 7.24319 6.77385 7.46718 6.34758 7.31723C5.92132 7.16728 5.69732 6.70017 5.84727 6.2739C6.10375 5.54481 6.60998 4.93002 7.27631 4.53841C7.94264 4.1468 8.72607 4.00365 9.48783 4.13432C10.2496 4.26498 10.9405 4.66102 11.4383 5.2523C11.9359 5.84345 12.2083 6.59162 12.2073 7.36434C12.2069 8.61645 11.2786 9.44332 10.6157 9.88527C10.2592 10.1229 9.90864 10.2976 9.65036 10.4124C9.52007 10.4703 9.41035 10.5142 9.33128 10.5444C9.29169 10.5595 9.25958 10.5711 9.23621 10.5795L9.20779 10.5894L9.19874 10.5925L9.19556 10.5936L9.1943 10.594C9.1943 10.594 9.19328 10.5943 8.93455 9.81814L9.19328 10.5943C8.7646 10.7372 8.30124 10.5056 8.15835 10.0769C8.01555 9.64848 8.24683 9.18546 8.67496 9.04223L8.68801 9.03765C8.7006 9.03317 8.72123 9.02569 8.74875 9.01521C8.80392 8.99419 8.88596 8.96143 8.98577 8.91707C9.18773 8.82731 9.45076 8.69521 9.70797 8.52374C10.2722 8.14759 10.5709 7.74743 10.5709 7.36359L10.5709 7.36238C10.5715 6.97593 10.4353 6.60176 10.1864 6.30612C9.93754 6.01048 9.59207 5.81246 9.21119 5.74713Z" fill="#E64646"/>
<path d="M9 12.2727C8.54813 12.2727 8.18182 12.639 8.18182 13.0909C8.18182 13.5428 8.54813 13.9091 9 13.9091H9.00819C9.46005 13.9091 9.82637 13.5428 9.82637 13.0909C9.82637 12.639 9.46005 12.2727 9.00819 12.2727H9Z" fill="#E64646"/>
<path fill-rule="evenodd" clip-rule="evenodd" d="M0 9C0 4.02944 4.02944 0 9 0C13.9706 0 18 4.02944 18 9C18 13.9706 13.9706 18 9 18C4.02944 18 0 13.9706 0 9ZM9 1.63636C4.93318 1.63636 1.63636 4.93318 1.63636 9C1.63636 13.0668 4.93318 16.3636 9 16.3636C13.0668 16.3636 16.3636 13.0668 16.3636 9C16.3636 4.93318 13.0668 1.63636 9 1.63636Z" fill="#E64646"/>
</svg>
