<svg width="24" height="24" viewBox="0 0 24 24" fill="none" xmlns="http://www.w3.org/2000/svg">
<g id="sec">
<path id="Vector" fill-rule="evenodd" clip-rule="evenodd" d="M12.5487 1.75122C12.1859 1.70207 11.8181 1.70207 11.4554 1.75122C11.0457 1.80693 10.6518 1.94493 10.0411 2.15836L4.77866 4.00079L4.71266 4.02393C4.45123 4.11436 4.17266 4.21122 3.9558 4.39679C3.7671 4.55792 3.62132 4.76334 3.53152 4.99465C3.42823 5.26036 3.42866 5.55522 3.42995 5.83165V13.4118C3.42995 14.4026 3.6228 15.3841 3.99823 16.3012C4.96513 18.6644 6.71547 20.6231 8.95552 21.8486L10.7242 22.8159C11.1161 23.0304 11.5557 23.1427 12.0024 23.1427C12.4492 23.1427 12.8887 23.0304 13.2807 22.8159L15.0477 21.8491C17.2876 20.6231 19.0377 18.6642 20.0045 16.3008C20.3797 15.3837 20.5727 14.4023 20.5728 13.4114V5.83165C20.5737 5.55522 20.5745 5.26036 20.4712 4.99422C20.3814 4.76291 20.2356 4.55749 20.0469 4.39636C19.8301 4.21079 19.5515 4.11436 19.2905 4.0235C19.2684 4.01582 19.2462 4.00811 19.2241 4.00036L13.9629 2.15879C13.3522 1.94451 12.9584 1.80651 12.5487 1.75122ZM11.6285 3.02579C11.8767 2.99218 12.1282 2.99218 12.3764 3.02579C12.6412 3.06179 12.9065 3.15136 13.6021 3.39522L18.7998 5.21451C18.9729 5.27493 19.0728 5.31051 19.1461 5.34179C19.1907 5.36108 19.2087 5.37179 19.2129 5.37479C19.2395 5.39748 19.2601 5.42632 19.2729 5.45879C19.2742 5.46393 19.2785 5.48451 19.2815 5.53293C19.2871 5.61222 19.2875 5.71808 19.2875 5.90193V13.4118C19.2874 14.2359 19.1269 15.0521 18.8148 15.8148C17.9597 17.9051 16.4117 19.6377 14.4305 20.7219L12.6639 21.6888C12.4612 21.7997 12.2338 21.8579 12.0027 21.8579C11.7715 21.8579 11.5441 21.7997 11.3414 21.6888L9.57309 20.7215C7.59182 19.6374 6.04378 17.9047 5.1888 15.8144C4.87665 15.052 4.71594 14.2361 4.71566 13.4122V5.90151C4.71566 5.71808 4.71566 5.61222 4.72166 5.53293C4.72243 5.50788 4.7253 5.48294 4.73023 5.45836C4.74309 5.42589 4.76368 5.39705 4.79023 5.37436C4.79452 5.37136 4.81252 5.36065 4.85709 5.34136C4.92995 5.31008 5.03023 5.27451 5.20337 5.21408L10.4019 3.39436C11.0979 3.15093 11.3641 3.06136 11.6285 3.02579Z" fill="white"/>
<path id="Vector 1" d="M12 13V2L4 4.89474V13H12Z" fill="white"/>
<path id="Vector 2" d="M12 13L12 23L17 20L20 15L20 13L12 13Z" fill="white"/>
</g>
</svg>
