<svg width="25" height="21" viewBox="0 0 25 21" fill="none" xmlns="http://www.w3.org/2000/svg">
<path fill-rule="evenodd" clip-rule="evenodd" d="M5.8057 8.86187C4.37025 7.72469 3.30314 6.82096 2.70182 6.19629C1.95908 5.42728 1.00852 4.64946 0.860505 3.52655C0.812894 3.17546 0.850714 2.81724 0.970801 2.48186C1.09089 2.14648 1.28975 1.8437 1.55074 1.59885C2.28085 0.912701 3.30696 0.846011 4.25318 0.811392C6.31676 0.734674 17.0497 0.232092 19.6437 0.117255C21.1592 0.050191 23.2112 -0.270411 24.1517 1.21692C25.0616 2.65522 24.0013 4.15141 23.2166 5.37958C20.3518 9.86947 17.5393 14.3924 14.6484 18.8658C14.1235 19.6794 13.5422 20.5699 12.5533 20.8529C12.1884 20.9581 11.8034 20.969 11.4351 20.8844C11.0669 20.7998 10.7276 20.6225 10.4497 20.3696C9.98833 19.9545 9.75627 19.3883 9.58478 18.8058C9.07817 17.0762 8.73626 15.2971 8.46798 13.5142C8.29385 12.3426 8.49169 11.1422 9.03404 10.0798C7.85388 10.015 6.7265 9.58966 5.8057 8.86187ZM12.4687 7.22796C13.4846 6.88268 14.0005 6.71475 14.1868 6.81562C14.2695 6.86009 14.338 6.92659 14.3847 7.00774C14.4313 7.0889 14.4543 7.18155 14.4511 7.27542C14.4436 7.49867 13.9965 7.88444 13.1055 8.6553C12.4903 9.1873 11.9854 9.62283 11.8294 9.75506C10.8087 10.6218 10.302 11.9249 10.4924 13.1931C10.7108 14.7037 11.0142 16.2 11.4014 17.675C11.8028 19.1692 11.8698 19.4186 12.9296 17.7798C15.8565 13.2517 18.7077 8.67478 21.6038 4.12819C22.2476 3.116 22.5703 2.58662 22.4219 2.32339C22.275 2.06279 21.6655 2.06459 20.4482 2.11637C15.0671 2.34856 9.68781 2.64534 4.30629 2.84385C2.3736 2.91525 2.59924 3.14795 3.88915 4.47454C4.87808 5.49132 5.97948 6.38461 7.09219 7.2667C8.09364 8.0608 9.47166 8.271 10.7282 7.82307C11.3057 7.61606 11.8874 7.42428 12.4687 7.22796Z" fill="white"/>
</svg>
