<svg width="23" height="24" viewBox="0 0 23 24" fill="none" xmlns="http://www.w3.org/2000/svg">
<path fill-rule="evenodd" clip-rule="evenodd" d="M6.90421 12C6.90421 14.4109 8.85694 16.3637 11.2678 16.3637C13.6678 16.3637 15.6315 14.4109 15.6315 12C15.6315 9.58911 13.6788 7.63638 11.2678 7.63638C8.85694 7.63638 6.90421 9.58911 6.90421 12ZM9.08603 12C9.08603 10.8 10.0678 9.8182 11.2678 9.8182C12.4678 9.8182 13.4497 10.8 13.4497 12C13.4497 13.2 12.4678 14.1818 11.2678 14.1818C10.0678 14.1818 9.08603 13.2 9.08603 12Z" fill="#1B1B1B"/>
<path fill-rule="evenodd" clip-rule="evenodd" d="M11.0278 24H11.5078C12.3805 24 13.1987 23.6618 13.8314 23.04C14.4532 22.4182 14.7914 21.6 14.7914 20.7273V20.52C14.7914 20.3236 14.8351 20.1382 14.9332 19.9745C15.0314 19.8109 15.1623 19.6691 15.3369 19.5709L15.806 19.2982C16.1442 19.1127 16.5369 19.0909 16.9296 19.32L17.0605 19.3855C17.8023 19.8109 18.7078 19.9309 19.5369 19.7127C20.3878 19.4945 21.086 18.9491 21.5332 18.1855L21.7623 17.7709C22.1987 17.0182 22.3187 16.1345 22.0896 15.2945C21.8605 14.4545 21.3151 13.7455 20.5296 13.2873L20.3987 13.2218C20.2242 13.1236 20.0932 12.9818 19.9951 12.8182C19.9078 12.6436 19.8532 12.4582 19.8532 12.2618V11.7164C19.8423 11.5309 19.8969 11.3345 19.9951 11.1709C20.0932 11.0073 20.2242 10.8764 20.4096 10.7673L20.5732 10.6582C21.326 10.2218 21.8605 9.51273 22.0896 8.67273C22.3187 7.83273 22.1987 6.94909 21.7623 6.19636L21.5223 5.78182C21.086 5.02909 20.3769 4.49455 19.5369 4.26545C18.6969 4.03636 17.8023 4.15636 17.0823 4.57091L16.886 4.68C16.5478 4.86545 16.1223 4.86545 15.7951 4.68L15.326 4.40727C15.1514 4.32 15.0205 4.17818 14.9223 4.01455C14.8351 3.85091 14.7805 3.65455 14.7805 3.46909V3.27273C14.7805 2.4 14.4423 1.58182 13.8205 0.96C13.1987 0.338182 12.3805 0 11.5078 0H11.0278C10.1551 0 9.32597 0.338182 8.71506 0.96C8.09324 1.58182 7.75506 2.4 7.75506 3.27273V3.46909C7.75506 3.65455 7.70052 3.85091 7.61324 4.01455C7.51506 4.17818 7.37324 4.32 7.20961 4.41818L6.74052 4.68C6.40233 4.87636 6.00961 4.89818 5.60597 4.66909L5.47506 4.60364C4.72233 4.16727 3.8387 4.04727 2.9987 4.27636C2.16961 4.49455 1.4387 5.05091 1.01324 5.79273L0.773243 6.20727C0.33688 6.96 0.227789 7.84364 0.445971 8.68364C0.675062 9.53455 1.20961 10.2327 1.9187 10.6473L2.13688 10.7891C2.30052 10.8764 2.44233 11.0182 2.5187 11.1709C2.60597 11.3345 2.66052 11.52 2.66052 11.7055V12.2727C2.66052 12.4582 2.61688 12.6545 2.5187 12.8182C2.42052 12.9927 2.28961 13.1236 2.10415 13.2327L1.96233 13.32C1.20961 13.7564 0.675062 14.4655 0.445971 15.3055C0.21688 16.1564 0.33688 17.0291 0.773243 17.7927L1.02415 18.1964C1.44961 18.9491 2.18052 19.4945 3.00961 19.7236C3.84961 19.9527 4.73324 19.8327 5.45324 19.4182L5.64961 19.3091C5.98779 19.1236 6.41324 19.1236 6.74052 19.3091L7.20961 19.5818C7.38415 19.68 7.51506 19.8218 7.61324 19.9855C7.70052 20.1491 7.75506 20.3455 7.75506 20.5309V20.7273C7.75506 21.6 8.09324 22.4182 8.71506 23.04C9.33688 23.6618 10.1551 24 11.0278 24ZM7.83142 17.4218C7.32961 17.1382 6.77324 16.9855 6.19506 16.9855C5.61688 16.9855 5.04961 17.1382 4.60233 17.4109L4.40597 17.52C4.15506 17.6618 3.86052 17.7055 3.57688 17.6291C3.29324 17.5527 3.05324 17.3673 2.91142 17.1164L2.67143 16.7018C2.52961 16.4509 2.48597 16.1564 2.56233 15.8727C2.6387 15.5891 2.81324 15.3491 3.08597 15.1964L3.22779 15.1091C3.72961 14.8255 4.14415 14.4109 4.42779 13.9091C4.72233 13.4073 4.86415 12.84 4.86415 12.2727V11.7055C4.86415 11.1382 4.70052 10.5818 4.41688 10.08C4.13324 9.57818 3.7187 9.17455 3.28233 8.92364L3.06415 8.78182C2.81324 8.64 2.62779 8.41091 2.55142 8.12727C2.48597 7.84364 2.5187 7.54909 2.66052 7.29818L2.91142 6.88364C3.05324 6.63273 3.29324 6.44727 3.56597 6.38182C3.84961 6.30545 4.14415 6.33818 4.42779 6.50182L4.5587 6.56727C5.54052 7.14545 6.82779 7.14545 7.83142 6.56727L8.30052 6.30546C8.80233 6.01091 9.21688 5.59636 9.50051 5.10545C9.78415 4.60364 9.93688 4.04727 9.93688 3.46909V3.27273C9.93688 2.98909 10.0569 2.70545 10.2532 2.49818C10.4605 2.30182 10.7442 2.18182 11.0278 2.18182H11.5078C11.7914 2.18182 12.0751 2.30182 12.2823 2.49818C12.4787 2.70545 12.5987 2.98909 12.5987 3.27273V3.48C12.5987 4.04727 12.7514 4.61455 13.0351 5.11636C13.3187 5.60727 13.7332 6.02182 14.2242 6.30546L14.6932 6.57818C15.686 7.15636 17.006 7.14545 17.9332 6.6L18.1296 6.49091C18.3805 6.34909 18.686 6.30545 18.9587 6.38182C19.2423 6.45818 19.4823 6.63273 19.6242 6.88364L19.8642 7.29818C20.006 7.54909 20.0496 7.85455 19.9732 8.12727C19.8969 8.4 19.7223 8.64 19.4605 8.79273L19.3078 8.88C18.806 9.16364 18.3914 9.57818 18.1078 10.08C17.8242 10.5709 17.6714 11.1491 17.6714 11.7164V12.2618C17.6714 12.8291 17.8242 13.3964 18.1078 13.8982C18.3914 14.4 18.806 14.8145 19.3405 15.12L19.4714 15.1855C19.7223 15.3273 19.9078 15.5782 19.9842 15.8509C20.0496 16.1345 20.0169 16.4291 19.8642 16.6909L19.6351 17.1055C19.4823 17.3564 19.2532 17.5309 18.9696 17.6073C18.686 17.6836 18.3805 17.6509 18.1078 17.4873L17.9769 17.4218C16.9842 16.8436 15.6969 16.8436 14.7042 17.4218L14.2351 17.6945C13.7332 17.9891 13.3187 18.3927 13.0351 18.8945C12.7514 19.3964 12.5987 19.9636 12.5987 20.5309V20.7273C12.5987 21.0218 12.4896 21.2945 12.2823 21.5018C12.0751 21.7091 11.8023 21.8182 11.5078 21.8182H11.0278C10.7332 21.8182 10.4605 21.7091 10.2423 21.5018C10.0351 21.2945 9.92597 21.0218 9.92597 20.7273V20.52C9.92597 19.9418 9.77324 19.3855 9.48961 18.8836C9.20597 18.3927 8.79143 17.9782 8.30052 17.6945L7.83142 17.4218Z" fill="#1B1B1B"/>
</svg>
