<svg width="20" height="20" viewBox="0 0 20 20" fill="none" xmlns="http://www.w3.org/2000/svg">
<path d="M10 0C4.48603 0 0 4.48604 0 10C0 15.514 4.48603 20 10 20C15.514 20 20 15.514 20 10C20 4.48604 15.514 0 10 0ZM7 6.25C7.6905 6.25 8.25 6.8095 8.25 7.5C8.25 8.1905 7.6905 8.75 7 8.75C6.3095 8.75 5.75 8.1905 5.75 7.5C5.75 6.8095 6.3095 6.25 7 6.25ZM13 6.25C13.6905 6.25 14.25 6.8095 14.25 7.5C14.25 8.1905 13.6905 8.75 13 8.75C12.3095 8.75 11.75 8.1905 11.75 7.5C11.75 6.8095 12.3095 6.25 13 6.25ZM5.8252 12.002C6.06527 11.9846 6.30875 12.083 6.46875 12.2861C7.32575 13.3756 8.613 14 10 14C11.387 14 12.6743 13.3751 13.5312 12.2861C13.7873 11.9611 14.2575 11.9041 14.584 12.1611C14.909 12.4166 14.9665 12.8884 14.71 13.2139C13.567 14.6664 11.85 15.5 10 15.5C8.15 15.5 6.43304 14.6669 5.29004 13.2139C5.03354 12.8884 5.09102 12.4162 5.41602 12.1602C5.53827 12.0638 5.68115 12.0124 5.8252 12.002Z" fill="white"/>
</svg>
