<svg width="12" height="8" viewBox="0 0 12 8" fill="none" xmlns="http://www.w3.org/2000/svg">
<path fill-rule="evenodd" clip-rule="evenodd" d="M0.726087 0.250306C0.844244 0.117814 1.04743 0.106221 1.1799 0.224378L9.10847 7.29581C9.24097 7.41396 9.25258 7.61715 9.13442 7.74962C9.01624 7.88211 8.81306 7.89373 8.68059 7.77557L7.92223 7.0992C7.7843 7.22723 7.62927 7.33552 7.46158 7.42095C7.22537 7.54131 6.96667 7.59343 6.66092 7.61839C6.36195 7.64282 5.99102 7.64282 5.52298 7.64282H3.90896C3.44089 7.64282 3.06997 7.64282 2.77099 7.61839C2.46525 7.59343 2.20657 7.54131 1.97034 7.42095C1.58729 7.22578 1.27587 6.91435 1.08071 6.5313C0.960344 6.29509 0.908208 6.03639 0.883244 5.73064C0.858815 5.43167 0.858815 5.06074 0.858815 4.59268V3.40725C0.858815 2.93918 0.858815 2.56826 0.883244 2.26929C0.90823 1.96354 0.960344 1.70486 1.08071 1.46863C1.13481 1.36243 1.19814 1.26119 1.26997 1.16608L0.752015 0.704142C0.619523 0.585964 0.60793 0.382778 0.726087 0.250306ZM1.75207 1.59606C1.71547 1.64854 1.68254 1.70348 1.65349 1.76049C1.587 1.89096 1.54571 2.05564 1.52396 2.32164C1.50193 2.59136 1.50167 2.93606 1.50167 3.42139V4.57854C1.50167 5.06389 1.50193 5.40857 1.52396 5.67831C1.54569 5.94429 1.587 6.10896 1.65349 6.23946C1.78704 6.50154 2.00011 6.71462 2.26219 6.84816C2.39267 6.91464 2.55735 6.95595 2.82334 6.97768C3.09307 6.99971 3.43777 6.99996 3.9231 6.99996H5.50882C5.99417 6.99996 6.33885 6.99971 6.60859 6.97768C6.87457 6.95595 7.03924 6.91464 7.16974 6.84816C7.26628 6.79896 7.35676 6.73866 7.43934 6.66851L1.75207 1.59606ZM9.56762 1.56763C9.43759 1.63294 9.28747 1.72646 9.13425 1.82188L8.54156 2.1909C8.51417 1.91891 8.46116 1.68439 8.35123 1.46863C8.15605 1.08559 7.84463 0.774165 7.46158 0.578999C7.22537 0.458635 6.96667 0.406521 6.66092 0.381535C6.36195 0.357106 5.99102 0.357106 5.52296 0.357106H3.10882C2.9313 0.357106 2.78739 0.501021 2.78739 0.678535C2.78739 0.856049 2.9313 0.999964 3.10882 0.999964H5.50882C5.99417 0.999964 6.33885 1.00022 6.60859 1.02225C6.87457 1.04398 7.03924 1.08529 7.16974 1.15178C7.43183 1.28532 7.64491 1.4984 7.77844 1.76049C7.84492 1.89096 7.88623 2.05564 7.90796 2.32164C7.92999 2.59136 7.93024 2.93606 7.93024 3.42139V5.07113C7.93025 5.18037 7.95808 5.2878 8.01112 5.3833C8.06416 5.47879 8.14066 5.55919 8.23339 5.61692L9.11392 6.16496L9.1344 6.17773C9.28762 6.27311 9.43774 6.3666 9.56777 6.43187C9.69919 6.49785 9.90874 6.58841 10.1604 6.56784C10.3124 6.55542 10.46 6.51067 10.5934 6.4366C10.7267 6.36253 10.8427 6.26084 10.9336 6.13832C11.084 5.93559 11.1179 5.70984 11.1313 5.56339C11.1446 5.41851 11.1446 5.24164 11.1445 5.06119V2.93831C11.1446 2.75781 11.1446 2.58094 11.1313 2.43604C11.1179 2.2896 11.084 2.06381 10.9336 1.86105C10.8427 1.73853 10.7267 1.63684 10.5933 1.56278C10.4599 1.48871 10.3123 1.44398 10.1603 1.43158C9.90862 1.41105 9.69904 1.50163 9.56762 1.56763ZM8.5731 2.92854L9.45354 2.38035C9.79571 2.16731 9.96682 2.06079 10.108 2.07229C10.1688 2.07726 10.2278 2.09515 10.2812 2.12478C10.3345 2.15441 10.3809 2.19508 10.4173 2.24409C10.5017 2.35783 10.5017 2.55939 10.5017 2.96246V5.03704C10.5017 5.44007 10.5017 5.64159 10.4173 5.75531C10.381 5.80431 10.3346 5.84499 10.2812 5.87462C10.2279 5.90425 10.1688 5.92215 10.108 5.92712C9.96686 5.93865 9.79577 5.83217 9.45362 5.61919L8.5731 5.07113V2.92854Z" fill="#E64646"/>
</svg>
