<svg width="12" height="8" viewBox="0 0 12 8" fill="none" xmlns="http://www.w3.org/2000/svg">
<path fill-rule="evenodd" clip-rule="evenodd" d="M6.65758 0.381851C6.3586 0.357422 5.98768 0.357422 5.51961 0.357422H3.90561C3.43755 0.357422 3.06662 0.357422 2.76765 0.381851C2.4619 0.406815 2.2032 0.458951 1.96699 0.579293C1.58394 0.774469 1.27252 1.0859 1.07734 1.46894C0.956997 1.70515 0.904862 1.96386 0.879897 2.2696C0.855469 2.56857 0.855469 2.9395 0.855469 3.40756V4.59299C0.855469 5.06106 0.855469 5.43199 0.879897 5.73096C0.904883 6.0367 0.956997 6.29541 1.07734 6.53161C1.27251 6.91467 1.58394 7.22609 1.96699 7.42126C2.2032 7.54161 2.4619 7.59374 2.76765 7.61871C3.06662 7.64314 3.43755 7.64314 3.90561 7.64314H5.51961C5.98768 7.64314 6.3586 7.64314 6.65758 7.61871C6.96332 7.59374 7.22203 7.54161 7.45823 7.42126C7.84129 7.2261 8.15272 6.91467 8.34788 6.53161C8.45785 6.31576 8.51085 6.08116 8.53823 5.80904L9.13105 6.17804C9.28427 6.27342 9.4344 6.36691 9.5644 6.43219C9.69585 6.49816 9.9054 6.5887 10.157 6.56815C10.309 6.55573 10.4567 6.51099 10.59 6.43692C10.7234 6.36285 10.8394 6.26115 10.9303 6.13864C11.0806 5.9359 11.1145 5.71013 11.1279 5.56369C11.1412 5.41883 11.1412 5.24196 11.1412 5.06151V2.93862C11.1412 2.75813 11.1412 2.58124 11.1279 2.43636C11.1145 2.28991 11.0806 2.06412 10.9302 1.86136C10.8393 1.73885 10.7233 1.63715 10.5899 1.56309C10.4566 1.48902 10.3089 1.44429 10.1569 1.43189C9.90527 1.41134 9.6957 1.50194 9.56428 1.56794C9.43425 1.63324 9.28412 1.72675 9.1309 1.82217L8.53821 2.19121C8.5108 1.91922 8.45781 1.68471 8.34788 1.46894C8.15271 1.08589 7.84128 0.774466 7.45823 0.579293C7.22203 0.458951 6.96332 0.406815 6.65758 0.381851ZM2.82 1.02256C2.554 1.04429 2.38933 1.08561 2.25885 1.1521C1.99676 1.28563 1.78368 1.49871 1.65015 1.7608C1.58365 1.89128 1.54236 2.05596 1.52061 2.32195C1.49858 2.59167 1.49833 2.93635 1.49833 3.42171V4.57885C1.49833 5.06421 1.49858 5.40889 1.52061 5.67861C1.54234 5.9446 1.58365 6.10928 1.65015 6.23976C1.78368 6.50185 1.99676 6.71493 2.25885 6.84846C2.38933 6.91495 2.554 6.95626 2.82 6.97799C3.08972 7.00002 3.4344 7.00028 3.91975 7.00028H5.50547C5.99083 7.00028 6.3355 7.00002 6.60523 6.97799C6.87122 6.95626 7.0359 6.91495 7.16638 6.84846C7.42847 6.71493 7.64155 6.50185 7.77508 6.23976C7.84157 6.10928 7.88288 5.9446 7.90461 5.67861C7.92664 5.40889 7.9269 5.06421 7.9269 4.57885V3.42171C7.9269 2.93635 7.92664 2.59167 7.90461 2.32195C7.88288 2.05596 7.84157 1.89128 7.77508 1.7608C7.64155 1.49871 7.42847 1.28562 7.16638 1.1521C7.0359 1.08561 6.87122 1.04429 6.60523 1.02256C6.3355 1.00054 5.99083 1.00028 5.50547 1.00028H3.91975C3.4344 1.00028 3.08972 1.00054 2.82 1.02256ZM8.56975 2.92885L9.45017 2.38066C9.79236 2.16762 9.96345 2.0611 10.1046 2.07261C10.1654 2.07757 10.2245 2.09547 10.2778 2.1251C10.3312 2.15472 10.3776 2.1954 10.4139 2.2444C10.4983 2.35814 10.4983 2.55968 10.4983 2.96277V5.03734C10.4983 5.44039 10.4983 5.6419 10.414 5.75562C10.3776 5.80463 10.3312 5.84531 10.2779 5.87494C10.2245 5.90457 10.1655 5.92247 10.1047 5.92744C9.96351 5.93896 9.79243 5.83249 9.45025 5.61951L8.56975 5.07145V2.92885Z" fill="#2688EB"/>
</svg>
