<svg width="21" height="16" viewBox="0 0 21 16" fill="none" xmlns="http://www.w3.org/2000/svg">
<path fill-rule="evenodd" clip-rule="evenodd" d="M11.8191 0.763213C11.2211 0.714356 10.4793 0.714355 9.54313 0.714355H6.31513C5.379 0.714355 4.63714 0.714356 4.0392 0.763213C3.42772 0.813141 2.9103 0.917413 2.43789 1.1581C1.67179 1.54845 1.04894 2.1713 0.658587 2.9374C0.417901 3.40981 0.313629 3.92723 0.263701 4.53871C0.214844 5.13665 0.214844 5.87851 0.214844 6.81464V9.1855C0.214844 10.1216 0.214844 10.8635 0.263701 11.4614C0.313672 12.0729 0.417901 12.5903 0.658587 13.0627C1.04893 13.8288 1.67178 14.4517 2.43789 14.842C2.9103 15.0827 3.42772 15.187 4.0392 15.2369C4.63714 15.2858 5.379 15.2858 6.31513 15.2858H9.54313C10.4793 15.2858 11.2211 15.2858 11.8191 15.2369C12.4305 15.187 12.948 15.0827 13.4204 14.842C14.1865 14.4517 14.8093 13.8288 15.1997 13.0627C15.4196 12.631 15.5256 12.1618 15.5804 11.6176L16.766 12.3556C17.0724 12.5464 17.3727 12.7333 17.6327 12.8639C17.8956 12.9958 18.3147 13.1769 18.8179 13.1358C19.122 13.111 19.4172 13.0215 19.684 12.8734C19.9507 12.7252 20.1827 12.5218 20.3644 12.2768C20.6652 11.8713 20.733 11.4198 20.7598 11.1269C20.7864 10.8372 20.7863 10.4834 20.7863 10.1225V5.87676C20.7863 5.51577 20.7864 5.16198 20.7598 4.87223C20.7329 4.57934 20.6652 4.12776 20.3643 3.72224C20.1826 3.4772 19.9505 3.27382 19.6838 3.12569C19.4171 2.97756 19.1218 2.8881 18.8177 2.8633C18.3144 2.8222 17.8953 3.0034 17.6325 3.1354C17.3724 3.26598 17.0721 3.45301 16.7657 3.64386L15.5803 4.38194C15.5255 3.83795 15.4195 3.36893 15.1997 2.9374C14.8093 2.1713 14.1865 1.54844 13.4204 1.1581C12.948 0.917413 12.4305 0.813141 11.8191 0.763213ZM4.1439 2.04464C3.61192 2.0881 3.28256 2.17073 3.0216 2.30371C2.49742 2.57077 2.07126 2.99693 1.8042 3.52111C1.67122 3.78207 1.58863 4.11143 1.54513 4.64341C1.50107 5.18286 1.50056 5.87221 1.50056 6.84293V9.15721C1.50056 10.1279 1.50107 10.8173 1.54513 11.3567C1.58859 11.8887 1.67122 12.2181 1.8042 12.479C2.07126 13.0032 2.49742 13.4294 3.0216 13.6964C3.28256 13.8294 3.61192 13.912 4.1439 13.9555C4.68334 13.9996 5.3727 14.0001 6.34341 14.0001H9.51484C10.4856 14.0001 11.1749 13.9996 11.7144 13.9555C12.2463 13.912 12.5757 13.8294 12.8367 13.6964C13.3608 13.4294 13.787 13.0032 14.0541 12.479C14.187 12.2181 14.2697 11.8887 14.3131 11.3567C14.3572 10.8173 14.3577 10.1279 14.3577 9.15721V6.84293C14.3577 5.87221 14.3572 5.18286 14.3131 4.64341C14.2697 4.11143 14.187 3.78207 14.0541 3.52111C13.787 2.99693 13.3608 2.57076 12.8367 2.30371C12.5757 2.17073 12.2463 2.0881 11.7144 2.04464C11.1749 2.00058 10.4856 2.00007 9.51484 2.00007H6.34341C5.3727 2.00007 4.68334 2.00058 4.1439 2.04464ZM15.6434 5.85721L17.4042 4.76084C18.0886 4.33475 18.4308 4.12171 18.7131 4.14473C18.8348 4.15466 18.9529 4.19045 19.0596 4.2497C19.1663 4.30896 19.2591 4.39031 19.3318 4.48831C19.5006 4.7158 19.5006 5.11887 19.5006 5.92506V10.0742C19.5006 10.8803 19.5006 11.2833 19.3318 11.5108C19.2591 11.6088 19.1663 11.6901 19.0596 11.7494C18.953 11.8086 18.8349 11.8444 18.7132 11.8544C18.4309 11.8774 18.0888 11.6645 17.4044 11.2385L15.6434 10.1424V5.85721Z" fill="white"/>
</svg>
