<svg width="22" height="16" viewBox="0 0 22 16" fill="none" xmlns="http://www.w3.org/2000/svg">
<path fill-rule="evenodd" clip-rule="evenodd" d="M0.948267 0.500613C1.18458 0.235627 1.59095 0.212441 1.8559 0.448756L17.713 14.5916C17.978 14.8279 18.0013 15.2343 17.7649 15.4992C17.5286 15.7642 17.1222 15.7875 16.8573 15.5511L15.3406 14.1984C15.0647 14.4545 14.7546 14.671 14.4193 14.8419C13.9468 15.0826 13.4294 15.1869 12.8179 15.2368C12.22 15.2856 11.4781 15.2856 10.5421 15.2856H7.31401C6.37788 15.2856 5.63602 15.2856 5.03808 15.2368C4.4266 15.1869 3.90922 15.0826 3.43677 14.8419C2.67068 14.4516 2.04784 13.8287 1.65751 13.0626C1.41678 12.5902 1.31251 12.0728 1.26258 11.4613C1.21372 10.8633 1.21372 10.1215 1.21372 9.18536V6.8145C1.21372 5.87837 1.21372 5.13651 1.26258 4.53857C1.31255 3.92708 1.41678 3.40971 1.65751 2.93726C1.76572 2.72486 1.89238 2.52239 2.03602 2.33216L1.00012 1.40828C0.735139 1.17193 0.711953 0.765556 0.948267 0.500613ZM3.00022 3.19213C2.92704 3.29708 2.86117 3.40696 2.80308 3.52097C2.6701 3.78193 2.58751 4.11128 2.54401 4.64327C2.49995 5.18271 2.49944 5.87211 2.49944 6.84278V9.15707C2.49944 10.1278 2.49995 10.8171 2.54401 11.3566C2.58747 11.8886 2.6701 12.2179 2.80308 12.4789C3.07016 13.0031 3.49632 13.4292 4.02048 13.6963C4.28144 13.8293 4.6108 13.9119 5.14278 13.9554C5.68222 13.9994 6.37162 13.9999 7.3423 13.9999H10.5137C11.4844 13.9999 12.1738 13.9994 12.7133 13.9554C13.2452 13.9119 13.5746 13.8293 13.8356 13.6963C14.0287 13.5979 14.2096 13.4773 14.3748 13.337L3.00022 3.19213ZM18.6313 3.13526C18.3713 3.26588 18.071 3.45291 17.7646 3.64376L16.5792 4.3818C16.5244 3.83781 16.4184 3.36878 16.1986 2.93726C15.8082 2.17117 15.1853 1.54833 14.4193 1.158C13.9468 0.91727 13.4294 0.813042 12.8179 0.76307C12.22 0.714213 11.4781 0.714213 10.542 0.714213H5.71372C5.3587 0.714213 5.07087 1.00204 5.07087 1.35707C5.07087 1.7121 5.3587 1.99993 5.71372 1.99993H10.5137C11.4844 1.99993 12.1738 2.00044 12.7133 2.0445C13.2452 2.08796 13.5746 2.17058 13.8356 2.30357C14.3598 2.57064 14.7859 2.9968 15.053 3.52097C15.1859 3.78193 15.2686 4.11128 15.312 4.64327C15.3561 5.18271 15.3566 5.87211 15.3566 6.84278V10.1423C15.3566 10.3607 15.4123 10.5756 15.5183 10.7666C15.6244 10.9576 15.7774 11.1184 15.9629 11.2338L17.7239 12.3299L17.7649 12.3555C18.0713 12.5462 18.3716 12.7332 18.6316 12.8637C18.8945 12.9957 19.3136 13.1768 19.8168 13.1357C20.1209 13.1108 20.4161 13.0213 20.6828 12.8732C20.9496 12.7251 21.1815 12.5217 21.3633 12.2766C21.6641 11.8712 21.7318 11.4197 21.7587 11.1268C21.7853 10.837 21.7852 10.4833 21.7852 10.1224V5.87661C21.7852 5.51563 21.7853 5.16188 21.7587 4.87208C21.7318 4.5792 21.6641 4.12761 21.3632 3.7221C21.1814 3.47707 20.9494 3.27368 20.6827 3.12555C20.416 2.97742 20.1207 2.88796 19.8166 2.86316C19.3133 2.8221 18.8942 3.00326 18.6313 3.13526ZM16.6423 5.85707L18.4032 4.7607C19.0875 4.33461 19.4297 4.12157 19.712 4.14458C19.8337 4.15452 19.9518 4.1903 20.0585 4.24956C20.1651 4.30881 20.258 4.39016 20.3307 4.48817C20.4994 4.71566 20.4994 5.11877 20.4994 5.92491V10.0741C20.4994 10.8801 20.4994 11.2832 20.3307 11.5106C20.258 11.6086 20.1652 11.69 20.0585 11.7492C19.9518 11.8085 19.8337 11.8443 19.7121 11.8542C19.4298 11.8773 19.0876 11.6643 18.4033 11.2384L16.6423 10.1423V5.85707Z" fill="white"/>
</svg>
