<svg width="24" height="24" viewBox="0 0 24 24" fill="none" xmlns="http://www.w3.org/2000/svg">
<path fill-rule="evenodd" clip-rule="evenodd" d="M3.58684 20.1977C4.3203 20.5713 5.28039 20.5713 7.20056 20.5713H16.8006C18.7207 20.5713 19.6808 20.5713 20.4142 20.1977C21.0594 19.8689 21.5839 19.3444 21.9126 18.6993C22.2863 17.9659 22.2863 17.0058 22.2863 15.0856V8.91418C22.2863 6.99401 22.2863 6.03392 21.9126 5.30051C21.5839 4.65539 21.0594 4.13089 20.4142 3.80218C19.6808 3.42847 18.7207 3.42847 16.8006 3.42847H7.20056C5.28043 3.42847 4.32034 3.42847 3.58684 3.80214C2.94173 4.13086 2.41725 4.65538 2.08856 5.30051C1.71484 6.03392 1.71484 6.99401 1.71484 8.91418V15.0856C1.71484 17.0058 1.71484 17.9659 2.08856 18.6993C2.41725 19.3444 2.94174 19.8689 3.58684 20.1977ZM15.1203 19.0111L15.1203 16.9883L8.47773 16.988C8.03577 16.988 7.60057 17.0966 7.21042 17.3042L6.12793 17.8804C6.10424 17.893 6.08485 17.9124 6.07224 17.9361C6.03725 18.0018 6.06218 18.0835 6.12793 18.1185L7.21051 18.6947C7.6006 18.9023 8.03573 19.0109 8.47763 19.0109L15.1203 19.0111ZM16.7373 16.9883L15.7265 16.9883V19.0112L16.7373 19.0112C17.0721 19.0112 17.3435 18.7398 17.3435 18.405L17.3434 17.5945C17.3434 17.2597 17.072 16.9883 16.7373 16.9883Z" fill="white"/>
</svg>
