<svg width="31" height="17" viewBox="0 0 31 17" fill="none" xmlns="http://www.w3.org/2000/svg">
<g id="Frame 2917">
<g id="chevron_right_outline_36">
<path id="Vector" d="M7.62792 12.1279C7.58923 12.1666 7.54329 12.1973 7.49273 12.2183C7.44217 12.2392 7.38798 12.25 7.33326 12.25C7.27853 12.25 7.22434 12.2392 7.17378 12.2183C7.12322 12.1973 7.07728 12.1666 7.03859 12.1279L3.70526 8.79459C3.66655 8.7559 3.63585 8.70996 3.61491 8.6594C3.59396 8.60884 3.58318 8.55465 3.58318 8.49992C3.58318 8.4452 3.59396 8.39101 3.61491 8.34045C3.63585 8.28989 3.66655 8.24395 3.70526 8.20526L7.03859 4.87192C7.07728 4.83323 7.12322 4.80253 7.17378 4.78159C7.22434 4.76065 7.27853 4.74987 7.33326 4.74987C7.38798 4.74987 7.44217 4.76065 7.49273 4.78159C7.54329 4.80253 7.58923 4.83323 7.62792 4.87192C7.66662 4.91062 7.69731 4.95656 7.71826 5.00712C7.7392 5.05768 7.74998 5.11187 7.74998 5.16659C7.74998 5.22131 7.7392 5.2755 7.71826 5.32606C7.69731 5.37662 7.66662 5.42256 7.62792 5.46126L4.58926 8.49992L7.62792 11.5386C7.66663 11.5773 7.69733 11.6232 7.71827 11.6738C7.73922 11.7243 7.75 11.7785 7.75 11.8333C7.75 11.888 7.73922 11.9422 7.71827 11.9927C7.69733 12.0433 7.66663 12.0892 7.62792 12.1279Z" fill="#A3A3A3"/>
</g>
<g id="Group 134">
<rect id="Rectangle 823" x="12" width="9" height="8" fill="#2688EB"/>
<rect id="Rectangle 825" x="12" y="9" width="9" height="8" fill="#2688EB"/>
<rect id="Rectangle 824" x="22" width="9" height="8" fill="#2688EB"/>
<rect id="Rectangle 826" x="22" y="9" width="9" height="8" fill="#2688EB"/>
</g>
</g>
</svg>
